<svg height="512" viewBox="0 0 512 512" width="512" xmlns="http://www.w3.org/2000/svg"><g><g fill="#57a4ff"><path d="m72 264h368v32h-368z"/><path d="m48 136h112v32h-112z"/></g><g fill="#004fac"><path d="m472 96h-432a32.03 32.03 0 0 0 -32 32v176a32.03 32.03 0 0 0 32 32h432a32.03 32.03 0 0 0 32-32v-176a32.03 32.03 0 0 0 -32-32zm16 208a16.021 16.021 0 0 1 -16 16h-432a16.021 16.021 0 0 1 -16-16v-176a16.021 16.021 0 0 1 16-16h432a16.021 16.021 0 0 1 16 16z"/><path d="m440 256h-368a8 8 0 0 0 -8 8v32a8 8 0 0 0 8 8h368a8 8 0 0 0 8-8v-32a8 8 0 0 0 -8-8zm-240 16h48v16h-48zm-16 16h-48v-16h48zm80-16h48v16h-48zm64 0h48v16h-48zm-248 0h40v16h-40zm352 16h-40v-16h40z"/><path d="m168 168v-32a8 8 0 0 0 -8-8h-112a8 8 0 0 0 -8 8v32a8 8 0 0 0 8 8h112a8 8 0 0 0 8-8zm-16-8h-96v-16h96z"/><path d="m464 128h-48a8 8 0 0 0 0 16h48a8 8 0 0 0 0-16z"/><path d="m464 152h-24a8 8 0 0 0 0 16h24a8 8 0 0 0 0-16z"/><path d="m268 360a8 8 0 0 0 -16 0c0 .608 0 .687-1.657 2.344-2.372 2.372-6.343 6.343-6.343 13.656s3.971 11.284 6.343 13.657c1.657 1.658 1.657 1.736 1.657 2.343s0 .687-1.657 2.343c-2.372 2.373-6.343 6.344-6.343 13.657a8 8 0 0 0 16 0c0-.607 0-.686 1.657-2.342 2.372-2.372 6.343-6.343 6.343-13.658s-3.971-11.284-6.343-13.657c-1.657-1.655-1.657-1.734-1.657-2.343s0-.687 1.657-2.344c2.372-2.371 6.343-6.342 6.343-13.656z"/><path d="m208 360a8 8 0 0 0 -16 0c0 .608 0 .687-1.657 2.344-2.372 2.372-6.343 6.343-6.343 13.656s3.971 11.284 6.343 13.657c1.657 1.658 1.657 1.736 1.657 2.343s0 .687-1.657 2.343c-2.372 2.373-6.343 6.344-6.343 13.657a8 8 0 0 0 16 0c0-.607 0-.686 1.657-2.342 2.372-2.372 6.343-6.343 6.343-13.658s-3.971-11.284-6.343-13.657c-1.657-1.655-1.657-1.734-1.657-2.343s0-.687 1.657-2.344c2.372-2.371 6.343-6.342 6.343-13.656z"/><path d="m144 360a8 8 0 0 0 -16 0c0 .608 0 .687-1.657 2.344-2.372 2.372-6.343 6.343-6.343 13.656s3.971 11.284 6.343 13.657c1.657 1.658 1.657 1.736 1.657 2.343s0 .687-1.657 2.343c-2.372 2.373-6.343 6.344-6.343 13.657a8 8 0 0 0 16 0c0-.607 0-.686 1.657-2.342 2.372-2.372 6.343-6.343 6.343-13.658s-3.971-11.284-6.343-13.657c-1.657-1.655-1.657-1.734-1.657-2.343s0-.687 1.657-2.344c2.372-2.371 6.343-6.342 6.343-13.656z"/><path d="m400 360a8 8 0 0 0 -16 0c0 .608 0 .687-1.657 2.344-2.372 2.372-6.343 6.343-6.343 13.656s3.971 11.284 6.343 13.657c1.657 1.658 1.657 1.736 1.657 2.343s0 .687-1.657 2.343c-2.372 2.373-6.343 6.344-6.343 13.657a8 8 0 0 0 16 0c0-.607 0-.686 1.657-2.342 2.372-2.372 6.343-6.343 6.343-13.658s-3.971-11.284-6.343-13.657c-1.657-1.655-1.657-1.734-1.657-2.343s0-.687 1.657-2.344c2.372-2.371 6.343-6.342 6.343-13.656z"/><path d="m336 360a8 8 0 0 0 -16 0c0 .608 0 .687-1.657 2.344-2.372 2.372-6.343 6.343-6.343 13.656s3.971 11.284 6.343 13.657c1.657 1.658 1.657 1.736 1.657 2.343s0 .687-1.657 2.343c-2.372 2.373-6.343 6.344-6.343 13.657a8 8 0 0 0 16 0c0-.607 0-.686 1.657-2.342 2.372-2.372 6.343-6.343 6.343-13.658s-3.971-11.284-6.343-13.657c-1.657-1.655-1.657-1.734-1.657-2.343s0-.687 1.657-2.344c2.372-2.371 6.343-6.342 6.343-13.656z"/></g></g></svg>