<svg height="512" viewBox="0 0 60 60" width="512" xmlns="http://www.w3.org/2000/svg"><g id="Page-1" fill="none" fill-rule="evenodd"><g id="062---Coffee-Shop" fill="rgb(0,0,0)" fill-rule="nonzero"><path id="Shape" d="m2 52.184c-1.19435086.4222546-1.99474861 1.5492146-2 2.816v3c0 1.1045695.8954305 2 2 2h56c1.1045695 0 2-.8954305 2-2v-3c-.0052514-1.2667854-.8056491-2.3937454-2-2.816v-36.365c.4180253-.1420595.7973299-.379296 1.108-.693.5739985-.5579289.8960613-1.3255361.892-2.126 0-1.6568542-1.3431458-3-3-3h-11v-4c0-1.65685425-1.3431458-3-3-3h-13.029c-.148-.171-.3-.34-.466-.5-2.805-2.82-6.895-3.316-9.115-1.107-.4512449.45732956-.8005686 1.00500098-1.025 1.607h-2.365c-1.6568542 0-3 1.34314575-3 3v4h-11c-.79208511-.00643329-1.55284344.3089855-2.108.874-.57399851.5579289-.89606134 1.3255361-.892 2.126.00525139 1.2667854.80564914 2.3937454 2 2.816zm0 2.816c0-.5522847.44771525-1 1-1h16v4h-17zm19 3v-4h18v4zm15-6h-12v-17c0-1.1045695.8954305-2 2-2h8c1.1045695 0 2 .8954305 2 2zm5 6v-4h16c.5522847 0 1 .4477153 1 1v3zm15-6h-18v-17c0-2.209139-1.790861-4-4-4h-8c-2.209139 0-4 1.790861-4 4v17h-18v-36h9.882l-2.777 5.553c-.006.012-.007.025-.013.037s-.014.044-.023.066c-.0356105.0962764-.0561849.1974619-.061.3 0 .014-.008.025-.008.039v3c-.0073962 1.6680192 1.0253639 3.1639686 2.5877074 3.748285 1.5623435.5843165 3.3232998.1332171 4.4122926-1.130285.7498857.877087 1.8460459 1.3820811 3 1.3820811s2.2501143-.5049941 3-1.3820811c.7498857.877087 1.8460459 1.3820811 3 1.3820811s2.2501143-.5049941 3-1.3820811c.7498857.877087 1.8460459 1.3820811 3 1.3820811s2.2501143-.5049941 3-1.3820811c.7498857.877087 1.8460459 1.3820811 3 1.3820811s2.2501143-.5049941 3-1.3820811c1.0883982 1.2627935 2.848092 1.7141503 4.4099349 1.1311367 1.5618429-.5830137 2.5953551-2.0770344 2.5900651-3.7441367v-3c0-.014-.007-.025-.008-.039-.0048151-.1025381-.0253895-.2037236-.061-.3-.009-.022-.014-.045-.023-.066s-.007-.025-.013-.037l-2.777-5.558h9.882zm-11.618-35 2 4h-32.764l2-4zm-3.382 8c0 1.1045695-.8954305 2-2 2s-2-.8954305-2-2v-2h4zm-6 0c0 1.1045695-.8954305 2-2 2s-2-.8954305-2-2v-2h4zm-6 0c0 1.1045695-.8954305 2-2 2s-2-.8954305-2-2v-2h4zm-6 0c0 1.1045695-.8954305 2-2 2s-2-.8954305-2-2v-2h4zm-6 0c0 1.1045695-.8954305 2-2 2s-2-.8954305-2-2v-2h4zm26-2h4v2c0 1.1045695-.8954305 2-2 2s-2-.8954305-2-2zm14-11c.5522847 0 1 .4477153 1 1 .0006712.2696918-.1100548.5276905-.306.713-.1830903.1854514-.4334037.2889672-.694.287h-11v-2zm-35.925-7.785c.4329085.17653319.8882743.29197331 1.353.343 1.1326365.04319457 2.0404363.95230248 2.082 2.085.0711524.97836008.4980139 1.89682368 1.2 2.582.6834234.70157575 1.6001888 1.1284746 2.577 1.2.179.025.335.053.484.087-1.516 1-4.01.44-5.86-1.418-1.3728489-1.22836658-2.0584579-3.05030892-1.836-4.879zm7.016-.3c1.3705624 1.22770381 2.0552533 3.0473241 1.834 4.874-.4329085-.17653319-.8882743-.29197331-1.353-.343-1.1341195-.0433263-2.0424806-.9547415-2.082-2.089-.0711524-.97836008-.4980139-1.89682368-1.2-2.582-.6834234-.70157575-1.6001888-1.12847463-2.577-1.2-.187-.026-.349-.056-.5-.092.5220418-.3371487 1.1326537-.5112114 1.754-.5 1.5723184.08497278 3.0505073.77603685 4.124 1.928zm-12.091 2.085c0-.55228475.4477153-1 1-1h2.016c.0823081 2.08553208.9715077 4.05754731 2.48 5.5 1.4539762 1.5236824 3.4480094 2.4156648 5.553 2.484 1.3238526.0340248 2.606238-.4633001 3.561-1.381 1.609-1.615 1.774-4.224.66-6.607h11.73c.5522847 0 1 .44771525 1 1v9h-28zm-13.694 6.287c.18309032-.1854514.4334037-.2889672.694-.287h11v2h-11c-.55228475 0-1-.4477153-1-1-.00067119-.2696918.11005477-.5276905.306-.713z"/><path id="Shape" d="m16 31h-6c-2.209139 0-4 1.790861-4 4v9c0 1.1045695.8954305 2 2 2h10c1.1045695 0 2-.8954305 2-2v-9c0-2.209139-1.790861-4-4-4zm-6 2h6c1.1045695 0 2 .8954305 2 2v5h-10v-5c0-1.1045695.8954305-2 2-2zm-2 11v-2h10v2z"/><path id="Shape" d="m50 31h-6c-2.209139 0-4 1.790861-4 4v9c0 1.1045695.8954305 2 2 2h10c1.1045695 0 2-.8954305 2-2v-9c0-2.209139-1.790861-4-4-4zm-6 2h6c1.1045695 0 2 .8954305 2 2v5h-10v-5c0-1.1045695.8954305-2 2-2zm-2 11v-2h10v2z"/><path id="Shape" d="m33 40c-.5522847 0-1 .4477153-1 1v3c0 .5522847.4477153 1 1 1s1-.4477153 1-1v-3c0-.5522847-.4477153-1-1-1z"/><path id="Shape" d="m35 9h6c.5522847 0 1-.44771525 1-1s-.4477153-1-1-1h-6c-.5522847 0-1 .44771525-1 1s.4477153 1 1 1z"/><path id="Shape" d="m39 11h-2c-.5522847 0-1 .4477153-1 1s.4477153 1 1 1h2c.5522847 0 1-.4477153 1-1s-.4477153-1-1-1z"/></g></g></svg>