<svg height="512" viewBox="0 0 58 58" width="512" xmlns="http://www.w3.org/2000/svg"><g id="Page-1" fill="none" fill-rule="evenodd"><g id="062---Coffee-Shop" fill-rule="nonzero"><path id="Shape" d="m44 12h12v42h-54v-42h12z" fill="#f9eab0"/><path id="Shape" d="m41 23h-30v3c0 1.6568542 1.3431458 3 3 3s3-1.3431458 3-3c0 1.6568542 1.3431458 3 3 3s3-1.3431458 3-3c0 1.6568542 1.3431458 3 3 3s3-1.3431458 3-3c0 1.6568542 1.3431458 3 3 3s3-1.3431458 3-3c0 1.6568542 1.3431458 3 3 3s3-1.3431458 3-3c0 1.6568542 1.3431458 3 3 3s3-1.3431458 3-3v-3z" fill="#f3d55b"/><path id="Shape" d="m25 31h8c1.6568542 0 3 1.3431458 3 3v18h-14v-18c0-1.6568542 1.3431458-3 3-3z" fill="#cb8252"/><path id="Shape" d="m36 53c-.5522847 0-1-.4477153-1-1v-18c0-1.1045695-.8954305-2-2-2h-8c-1.1045695 0-2 .8954305-2 2v18c0 .5522847-.4477153 1-1 1s-1-.4477153-1-1v-18c0-2.209139 1.790861-4 4-4h8c2.209139 0 4 1.790861 4 4v18c0 .5522847-.4477153 1-1 1z" fill="#f3d55b"/><path id="Shape" d="m18 40v3c0 .5522847-.4477153 1-1 1h-10c-.55228475 0-1-.4477153-1-1v-3z" fill="#a59078"/><path id="Shape" d="m18 34v6h-12v-6c0-1.6568542 1.34314575-3 3-3h6c1.6568542 0 3 1.3431458 3 3z" fill="#2fa8cc"/><path id="Shape" d="m52 40v3c0 .5522847-.4477153 1-1 1h-10c-.5522847 0-1-.4477153-1-1v-3z" fill="#a59078"/><path id="Shape" d="m32 44c-.5522847 0-1-.4477153-1-1v-3c0-.5522847.4477153-1 1-1s1 .4477153 1 1v3c0 .5522847-.4477153 1-1 1z" fill="#805333"/><path id="Shape" d="m15.95 31.16c-3.43.46-9.95 2.2-9.95 8.84v-6c0-1.6568542 1.34314575-3 3-3h6c.3236177-.0030235.6452255.051142.95.16z" fill="#67b9cc"/><path id="Shape" d="m52 34v6h-12v-6c0-1.6568542 1.3431458-3 3-3h6c1.6568542 0 3 1.3431458 3 3z" fill="#2fa8cc"/><path id="Shape" d="m49.95 31.16c-3.43.46-9.95 2.2-9.95 8.84v-6c0-1.6568542 1.3431458-3 3-3h6c.3236177-.0030235.6452255.051142.95.16z" fill="#67b9cc"/><path id="Rectangle-path" d="m2 14h54v2h-54z" fill="#f3d55b"/><path id="Shape" d="m58 12c-.0081672 1.1011688-.8988312 1.9918328-2 2h-14v-4h14c1.1032019.0032948 1.9967052.8967981 2 2z" fill="#71c285"/><path id="Shape" d="m58 54v3c0 .5522847-.4477153 1-1 1h-18v-6h17c1.1032019.0032948 1.9967052.8967981 2 2z" fill="#cbb292"/><path id="Shape" d="m19 52v6h-18c-.55228475 0-1-.4477153-1-1v-3c.0032948-1.1032019.89679813-1.9967052 2-2z" fill="#cbb292"/><path id="Shape" d="m17 21v3c0 1.6568542-1.3431458 3-3 3s-3-1.3431458-3-3v-3z" fill="#4fba6f"/><path id="Shape" d="m23 21v3c0 1.6568542-1.3431458 3-3 3s-3-1.3431458-3-3v-3z" fill="#24ae5f"/><path id="Shape" d="m29 21v3c0 1.6568542-1.3431458 3-3 3s-3-1.3431458-3-3v-3z" fill="#4fba6f"/><path id="Shape" d="m35 21v3c0 1.6568542-1.3431458 3-3 3s-3-1.3431458-3-3v-3z" fill="#24ae5f"/><path id="Shape" d="m41 21v3c0 1.6568542-1.3431458 3-3 3s-3-1.3431458-3-3v-3z" fill="#4fba6f"/><path id="Shape" d="m47 21v3c0 1.6568542-1.3431458 3-3 3s-3-1.3431458-3-3v-3z" fill="#24ae5f"/><path id="Shape" d="m47 21h-36l3-6h30z" fill="#71c285"/><path id="Shape" d="m16 9.99997229v4.00002771h-14c-1.10320187-.0032948-1.9967052-.8967981-2-2-.00282307-.5305905.2101411-1.0395388.59-1.41.3704612-.3798589.87940947-.59282307 1.41-.59z" fill="#71c285"/><path id="Shape" d="m42 3c1.1032019.0032948 1.9967052.89679813 2 2v10h-30v-10c.0032948-1.10320187.8967981-1.9967052 2-2z" fill="#7ed09e"/><path id="Shape" d="m40 8h-6c-.5522847 0-1-.44771525-1-1s.4477153-1 1-1h6c.5522847 0 1 .44771525 1 1s-.4477153 1-1 1z" fill="#fff"/><path id="Shape" d="m38 12h-2c-.5522847 0-1-.4477153-1-1s.4477153-1 1-1h2c.5522847 0 1 .4477153 1 1s-.4477153 1-1 1z" fill="#fff"/><path id="Rectangle-path" d="m19 52h20v6h-20z" fill="#a59078"/><path id="Shape" d="m29.38 9.28v.01c-.1367724.22058242-.2977719.42518597-.48.61-1.83 1.82-5.27 1.33-7.7-1.1-1.6115144-1.4701483-2.396761-3.63892441-2.1-5.8.0865637-.4569792.2633405-.89212221.52-1.28 1.44 1.37 2.52.32 3.96 1.76 1.47 1.47.37 2.57 1.84 4.04 1.44 1.44 2.52.39 3.96 1.76z" fill="#a56a43"/><path id="Shape" d="m29.38 9.28c-1.44-1.37-2.52-.32-3.96-1.76-1.47-1.47-.37-2.57-1.84-4.04-1.44-1.44-2.52-.39-3.96-1.76v-.01c.1367724-.22058242.2977719-.42518597.48-.61 1.83-1.82 5.27-1.33 7.7 1.1.2517579.24709799.4825517.51468498.69.8 1.61 2.07 1.97 4.6.89 6.28z" fill="#805333"/></g></g></svg>