<svg id="Capa_1" enable-background="new 0 0 512 512" height="512" viewBox="0 0 512 512" width="512" xmlns="http://www.w3.org/2000/svg"><g><g><path d="m306 196h166v120h-166z" fill="#896645"/><path d="m502.289 295.76c-7.431 12.863-18.472 20.24-30.289 20.24s-22.858-7.377-30.289-20.24c-6.262-10.838-9.711-24.958-9.711-39.76s3.449-28.922 9.711-39.76c7.431-12.863 18.472-20.24 30.289-20.24s22.858 7.377 30.289 20.24c6.262 10.838 9.711 24.958 9.711 39.76s-3.449 28.922-9.711 39.76z" fill="#73543b"/></g><g><path d="m40 196h166v120h-166z" fill="#af8663"/><path d="m0 256c0-14.802 3.449-28.922 9.711-39.76 7.431-12.863 18.472-20.24 30.289-20.24s22.858 7.377 30.289 20.24c6.262 10.838 9.711 24.958 9.711 39.76s-3.449 28.922-9.711 39.76c-7.431 12.863-18.472 20.24-30.289 20.24s-22.858-7.377-30.289-20.24c-6.262-10.838-9.711-24.958-9.711-39.76z" fill="#896645"/></g><g><path d="m77.544 291.457h166v120h-166z" fill="#896645" transform="matrix(.707 -.707 .707 .707 -201.495 216.461)"/><path d="m73.57 438.431c-10.466-10.466-18.012-22.889-21.248-34.981-3.84-14.35-1.25-27.374 7.106-35.729s21.379-10.946 35.73-7.106c12.092 3.236 24.515 10.781 34.981 21.248s18.012 22.89 21.248 34.981c3.84 14.35 1.25 27.374-7.106 35.73s-21.379 10.946-35.729 7.106c-12.093-3.237-24.516-10.783-34.982-21.249z" fill="#73543b"/></g><g><path d="m291.456 268.457h120v166h-120z" fill="#73543b" transform="matrix(.707 -.707 .707 .707 -145.578 351.457)"/><path d="m403.449 459.679c-14.35 3.84-27.374 1.25-35.73-7.106s-10.946-21.379-7.106-35.73c3.236-12.092 10.781-24.515 21.248-34.981s22.889-18.012 34.981-21.248c14.35-3.84 27.374-1.25 35.729 7.106 8.356 8.356 10.946 21.379 7.106 35.729-3.236 12.092-10.781 24.515-21.248 34.981s-22.888 18.013-34.98 21.249z" fill="#5c452e"/></g><g><path d="m196 306h120v166h-120z" fill="#af8663"/><path d="m256 306h60v166h-60z" fill="#896645"/><path d="m256 512c-14.802 0-28.922-3.449-39.76-9.711-12.863-7.431-20.24-18.472-20.24-30.289s7.377-22.858 20.24-30.289c10.838-6.262 24.958-9.711 39.76-9.711s28.922 3.449 39.76 9.711c12.863 7.431 20.24 18.472 20.24 30.289s-7.377 22.858-20.24 30.289c-10.838 6.262-24.958 9.711-39.76 9.711z" fill="#896645"/><path d="m295.76 502.289c12.863-7.431 20.24-18.472 20.24-30.289s-7.377-22.858-20.24-30.289c-10.838-6.262-24.958-9.711-39.76-9.711v80c14.802 0 28.922-3.449 39.76-9.711z" fill="#73543b"/></g><circle cx="381" cy="30" fill="#ff9d21" r="15"/><circle cx="421" cy="100" fill="#ff9d21" r="15"/><circle cx="111" cy="50" fill="#ffdd54" r="15"/><path d="m256 360c-43.389 0-83.587-19.614-110.289-53.812-26.701-34.199-35.98-77.955-25.457-120.048l31.194-124.777c1.311-5.243 5.34-9.376 10.548-10.818 5.205-1.442 10.789.028 14.61 3.85l25.938 25.938 40.343-72.616c2.646-4.764 7.666-7.717 13.113-7.717s10.467 2.953 13.112 7.716l40.343 72.616 25.938-25.938c3.822-3.821 9.401-5.29 14.61-3.85 5.208 1.442 9.237 5.575 10.548 10.818l31.194 124.777c10.523 42.093 1.244 85.849-25.457 120.048s-66.899 53.813-110.288 53.813z" fill="#ff9d21"/><path d="m366.289 306.188c26.701-34.199 35.98-77.955 25.457-120.048l-31.194-124.778c-1.311-5.243-5.34-9.376-10.548-10.818-5.209-1.44-10.788.028-14.61 3.85l-25.938 25.938-40.344-72.616c-2.645-4.763-7.665-7.716-13.112-7.716v360c43.389 0 83.587-19.614 110.289-53.812z" fill="#ff7038"/><path d="m256 360c-28.636 0-54.949-13.111-72.194-35.973s-22.623-51.766-14.757-79.3l16.973-59.404c1.395-4.882 5.165-8.728 10.019-10.218 4.854-1.492 10.133-.425 14.027 2.833l16.002 13.383 16.515-33.029c2.539-5.082 7.733-8.292 13.415-8.292s10.876 3.21 13.416 8.292l16.515 33.029 16.002-13.383c3.895-3.258 9.172-4.325 14.027-2.833 4.854 1.49 8.624 5.336 10.019 10.218l16.973 59.403c7.866 27.535 2.488 56.438-14.757 79.301-17.246 22.862-43.559 35.973-72.195 35.973z" fill="#ffdd54"/><path d="m328.194 324.027c17.245-22.862 22.623-51.766 14.757-79.301l-16.973-59.403c-1.395-4.882-5.165-8.728-10.019-10.218-4.855-1.492-10.133-.425-14.027 2.833l-16.002 13.383-16.515-33.029c-2.539-5.082-7.733-8.292-13.415-8.292v210c28.636 0 54.949-13.111 72.194-35.973z" fill="#ff9d21"/></g></svg>