<svg id="Capa_1" enable-background="new 0 0 512 512" height="512" viewBox="0 0 512 512" width="512" xmlns="http://www.w3.org/2000/svg"><g><path d="m501.075 212.927c-8.36-13.935-20.781-21.927-34.075-21.927h-74.138c-.346-1.622-.711-3.243-1.115-4.86l-31.195-124.778c-1.311-5.243-5.34-9.376-10.548-10.818-5.209-1.44-10.788.028-14.61 3.85l-25.938 25.938-40.344-72.616c-2.645-4.763-7.665-7.716-13.112-7.716s-10.467 2.953-13.112 7.716l-40.343 72.616-25.938-25.938c-3.821-3.821-9.405-5.292-14.61-3.85-5.208 1.442-9.237 5.575-10.548 10.818l-31.195 124.778c-.404 1.618-.769 3.238-1.115 4.86h-74.139c-13.294 0-25.715 7.992-34.075 21.927-7.045 11.741-10.925 27.038-10.925 43.073s3.88 31.332 10.925 43.073c8.36 13.935 20.781 21.927 34.075 21.927h54.076l-38.224 38.224c-.004.004-.009.008-.013.012v.001c-9.4 9.4-12.531 23.834-8.591 39.601 3.321 13.283 11.395 26.843 22.732 38.182 11.339 11.338 24.898 19.411 38.182 22.732 4.466 1.116 8.823 1.665 12.99 1.665 10.548 0 19.872-3.518 26.611-10.256.004-.004.008-.009.012-.013l38.225-38.224v54.076c0 13.294 7.992 25.715 21.927 34.075 11.741 7.045 27.038 10.925 43.073 10.925s31.332-3.88 43.073-10.925c13.935-8.36 21.927-20.781 21.927-34.075v-54.076l38.224 38.224c.004.004.008.009.012.013h.001c6.738 6.739 16.062 10.256 26.61 10.256 4.166 0 8.525-.55 12.99-1.665 13.283-3.321 26.843-11.395 38.182-22.732 11.338-11.339 19.411-24.898 22.732-38.182 3.94-15.767.81-30.2-8.591-39.602-.004-.004-.009-.008-.013-.012l-38.223-38.224h54.076c13.294 0 25.715-7.992 34.075-21.927 7.045-11.741 10.925-27.038 10.925-43.073s-3.88-31.332-10.925-43.073zm-72.25 8.073c-4.429 10.309-6.825 22.423-6.825 35s2.396 24.691 6.825 35h-52.195c12.63-21.375 19.238-45.444 19.346-70zm-279.468-27.585 24.77-99.075 21.267 21.267c3.328 3.329 8.027 4.9 12.687 4.249 4.662-.653 8.746-3.456 11.032-7.571l36.887-66.398 36.888 66.397c2.286 4.115 6.37 6.918 11.032 7.571 4.662.651 9.358-.921 12.687-4.249l21.267-21.267 24.77 99.075c7.901 31.606 1.581 64.401-17.308 90.698 2.096-12.908 1.355-26.301-2.383-39.386l-16.973-59.403c-1.395-4.882-5.165-8.728-10.019-10.218-4.855-1.492-10.133-.425-14.027 2.833l-16.002 13.383-16.515-33.029c-2.541-5.082-7.735-8.292-13.417-8.292s-10.876 3.21-13.416 8.292l-16.515 33.029-16.002-13.383c-3.895-3.258-9.173-4.325-14.027-2.833-4.854 1.49-8.624 5.336-10.019 10.218l-16.973 59.404c-3.738 13.085-4.479 26.478-2.383 39.385-18.889-26.296-25.209-59.091-17.308-90.697zm58.399 112.546c-11.523-15.277-15.118-34.593-9.861-52.992l10.632-37.21 12.851 10.747c3.518 2.943 8.189 4.115 12.682 3.179 4.49-.935 8.307-3.873 10.357-7.977l11.583-23.167 11.584 23.167c2.051 4.104 5.867 7.042 10.357 7.977 4.492.938 9.164-.234 12.682-3.179l12.851-10.747 10.632 37.21c5.257 18.399 1.662 37.715-9.861 52.992-11.525 15.277-29.109 24.039-48.245 24.039s-36.72-8.762-48.244-24.039zm-72.386-14.961h-52.195c4.429-10.309 6.825-22.423 6.825-35s-2.396-24.691-6.825-35h32.849c.108 24.556 6.716 48.625 19.346 70zm-105.37-35c0-21.712 9.712-35 15-35s15 13.288 15 35-9.712 35-15 35-15-13.288-15-35zm129.045 65c14.487 13.98 31.635 24.522 50.354 31.099l-50.856 50.856c-4.158-10.422-11.03-20.682-19.923-29.575s-19.154-15.765-29.575-19.923l32.457-32.457zm-62.852 94.807c-15.352-15.354-17.881-31.617-14.142-35.356v.001c3.737-3.74 20.001-1.213 35.355 14.142 15.353 15.353 17.881 31.616 14.143 35.355-3.741 3.737-20.004 1.209-35.356-14.142zm159.807 66.193c-21.712 0-35-9.712-35-15s13.288-15 35-15 35 9.712 35 15-13.288 15-35 15zm35-53.175c-10.309-4.429-22.423-6.825-35-6.825s-24.691 2.396-35 6.825v-45.901l23.401-23.401c3.836.313 7.704.477 11.599.477s7.763-.164 11.599-.477l23.401 23.401zm124.807-13.018c-15.352 15.351-31.617 17.882-35.356 14.142h.001c-3.739-3.739-1.211-20.003 14.142-35.355s31.618-17.881 35.355-14.143c3.739 3.738 1.209 20.002-14.142 35.356zm-12.852-62.35c-10.422 4.158-20.682 11.03-29.575 19.923s-15.765 19.154-19.923 29.575l-50.856-50.856c18.719-6.577 35.867-17.119 50.354-31.099h17.543zm64.045-62.457c-5.288 0-15-13.288-15-35s9.712-35 15-35 15 13.288 15 35-9.712 35-15 35z"/><circle cx="381" cy="30" r="15"/><circle cx="421" cy="100" r="15"/><circle cx="111" cy="50" r="15"/></g></svg>