<svg id="Capa_1" enable-background="new 0 0 512 512" height="512" viewBox="0 0 512 512" width="512" xmlns="http://www.w3.org/2000/svg"><g><g><path d="m21.578 442.794h468.844c11.917 0 21.578-9.749 21.578-21.775v-63.585c0-10.336-4.069-20.249-11.311-27.557l-20.663-20.851c-5.251-5.299-5.251-13.89 0-19.189l7.451-7.519c5.76-5.813 7.785-14.404 5.236-22.212l-8.939-27.371c-2.915-8.927-11.178-14.959-20.493-14.959h-5.108c-6.391 0-12.52-2.562-17.039-7.122l-18.311-18.478c-18.286-18.453-43.087-28.82-68.948-28.82h-120.078c-20.548 0-40.571 6.551-57.211 18.717l-123.329 90.175c-5.456 3.989-8.863 10.227-9.292 17.012l-.876 13.839c-.535 8.446-5.661 15.899-13.316 19.358l-16.411 7.416c-8.13 3.673-13.362 11.823-13.362 20.811v70.335c0 12.026 9.661 21.775 21.578 21.775z" fill="#22b37f"/><path d="m500.689 329.877-20.663-20.852c-5.251-5.299-5.251-13.89 0-19.189l7.451-7.519c5.76-5.813 7.785-14.404 5.236-22.211l-8.939-27.371c-2.915-8.928-11.178-14.959-20.493-14.959h-5.108c-6.391 0-12.52-2.562-17.039-7.122l-18.311-18.478c-18.286-18.453-43.087-28.82-68.948-28.82h-30.905c25.861 0 50.662 10.367 68.948 28.82l18.311 18.478c4.519 4.56 10.648 7.122 17.039 7.122h5.108c9.314 0 17.577 6.031 20.493 14.959l8.939 27.371c2.55 7.807.525 16.398-5.236 22.211l-7.451 7.519c-5.251 5.299-5.251 13.89 0 19.189l20.663 20.852c7.243 7.308 11.311 17.221 11.311 27.557v63.585c0 12.026-9.661 21.775-21.578 21.775h30.905c11.917 0 21.578-9.749 21.578-21.775v-63.585c0-10.336-4.069-20.249-11.311-27.557z" fill="#09a76d"/><path d="m21.578 442.794h468.844c11.917 0 21.578-9.749 21.578-21.775v-9.715h-512v9.715c0 12.026 9.661 21.775 21.578 21.775z" fill="#57be92"/><path d="m481.095 421.019c0 12.026-9.661 21.775-21.578 21.775h30.905c11.917 0 21.578-9.749 21.578-21.775v-9.715h-30.905z" fill="#22b37f"/><path d="m415.704 268.188c0 14.026-5.465 27.49-15.217 37.486l-33.041 33.868c-8.788 9.008-20.791 14.081-33.317 14.081h-97.59c-13.917 0-27.11-6.256-35.992-17.067l-26-31.646c-7.877-9.587-12.188-21.65-12.188-34.103v-2.618h253.345z" fill="#02905d"/><path d="m162.36 268.188c0-19.418 9.265-37.671 24.94-49.132l10.386-7.594c10.57-7.729 23.057-11.814 36.11-11.814h120.079c16.439 0 31.893 6.46 43.518 18.191l.679.685c11.294 11.398 17.631 26.795 17.631 42.841v6.824h-253.343z" fill="#b3dafe"/></g><g><ellipse cx="286.905" cy="109.087" fill="#fedf30" rx="109.087" ry="109.087" transform="matrix(.707 -.707 .707 .707 6.896 234.824)"/><path d="m319.564 4.975c27.566 19.798 45.524 52.13 45.524 88.659 0 60.247-48.84 109.087-109.088 109.087-11.377 0-22.347-1.744-32.658-4.975 17.898 12.855 39.845 20.428 63.563 20.428 60.247 0 109.088-48.84 109.088-109.087 0-48.87-32.137-90.231-76.429-104.112z" fill="#fac600"/><path d="m306.948 34.976c6.171-.05 10.285 5.611 8.218 10.948-5.493 14.182-11.573 28.185-17.502 42.191-.359.848-.102 1.202.601 1.607 11.101 6.409 22.178 12.86 33.29 19.25 5.474 3.148 6.346 9.554 1.778 13.887-20.126 19.092-40.284 38.151-60.435 57.217-3.38 3.198-6.708 3.924-10.173 2.246-3.774-1.827-5.626-6.122-4.086-10.104 2.102-5.433 4.406-10.789 6.643-16.169 3.609-8.679 7.22-17.358 10.877-26.018.373-.884.06-1.198-.62-1.589-11.239-6.464-22.59-12.797-33.689-19.497-5.167-3.119-5.777-9.48-1.373-13.653 20.139-19.081 40.336-38.101 60.435-57.224 1.854-1.763 3.888-3.022 6.036-3.092z" fill="#fea95c"/><path d="m331.555 108.973c-11.112-6.39-22.188-12.842-33.29-19.25-.702-.405-.96-.759-.601-1.607 5.929-14.007 12.009-28.01 17.502-42.191 2.067-5.337-2.047-10.998-8.218-10.948-2.148.07-4.182 1.329-6.036 3.093-7.243 6.891-14.507 13.761-21.769 20.634-.937 3.297-7.567 16.686-10.51 24.859-1.193 3.313.176 6.997 3.224 8.76 9.597 5.551 19.181 11.124 28.792 16.651 5.474 3.148 6.346 9.554 1.778 13.887-12.826 12.167-25.672 24.313-38.514 36.463-1.796 4.284-3.599 8.566-5.274 12.896-1.541 3.981.312 8.276 4.086 10.104 3.465 1.678 6.793.952 10.173-2.246 20.15-19.066 40.309-38.125 60.435-57.217 4.568-4.334 3.696-10.74-1.778-13.888z" fill="#fe9738"/></g><g><ellipse cx="401.824" cy="445.092" fill="#baafb9" rx="66.908" ry="66.908" transform="matrix(.25 -.968 .968 .25 -129.691 722.69)"/><g fill="#aa9ea9"><path d="m401.824 378.183c-2.615 0-5.19.166-7.726.458v40.749c0 4.267 3.459 7.726 7.726 7.726s7.726-3.459 7.726-7.726v-40.749c-2.536-.292-5.111-.458-7.726-.458z"/><path d="m376.432 452.421-35.462 20.474c2.164 4.727 4.859 9.157 8.014 13.216l35.174-20.308c3.695-2.133 4.962-6.859 2.828-10.554-2.133-3.696-6.86-4.963-10.554-2.828z"/><path d="m463.225 471.687-35.318-20.39c-3.697-2.135-8.423-.867-10.554 2.828-2.134 3.696-.867 8.421 2.828 10.554l35.304 20.382c3.071-4.117 5.671-8.604 7.74-13.374z"/></g><path d="m401.824 470.793c-14.172 0-25.701-11.529-25.701-25.701 0-14.171 11.53-25.701 25.701-25.701s25.701 11.53 25.701 25.701-11.53 25.701-25.701 25.701z" fill="#9b8e99"/></g><path d="m38.14 363.52v-47.58c-2.201 2.761-5.045 5.017-8.368 6.518l-16.411 7.416c-8.129 3.672-13.361 11.822-13.361 20.811v27.499h23.477c8.098-.001 14.663-6.566 14.663-14.664z" fill="#fedf30"/><path d="m111.021 391.49c2.062 0 4.119-.82 5.64-2.443l19.381-20.68c12.377-13.304 17.036-31.745 12.464-49.332l-24.669-94.876c-.253-.971-.684-1.847-1.242-2.61l-12.943 9.463 23.898 91.911c3.237 12.447-.061 25.5-8.803 34.896l-19.362 20.66c-2.918 3.113-2.76 8.003.354 10.921 1.491 1.399 3.389 2.09 5.282 2.09z" fill="#02905d"/><g><ellipse cx="116.357" cy="445.092" fill="#baafb9" rx="66.908" ry="66.908" transform="matrix(.25 -.968 .968 .25 -343.691 446.314)"/><g fill="#aa9ea9"><path d="m116.357 378.183c-2.615 0-5.19.166-7.726.458v40.749c0 4.267 3.459 7.726 7.726 7.726 4.268 0 7.726-3.459 7.726-7.726v-40.749c-2.536-.292-5.111-.458-7.726-.458z"/><path d="m90.965 452.421-35.462 20.474c2.164 4.727 4.859 9.157 8.014 13.216l35.174-20.308c3.695-2.133 4.962-6.859 2.828-10.554-2.133-3.696-6.86-4.963-10.554-2.828z"/><path d="m177.758 471.687-35.318-20.39c-3.697-2.135-8.423-.867-10.554 2.828-2.134 3.696-.867 8.421 2.828 10.554l35.304 20.382c3.071-4.117 5.671-8.604 7.74-13.374z"/></g><path d="m116.357 470.793c-14.172 0-25.701-11.529-25.701-25.701 0-14.171 11.53-25.701 25.701-25.701s25.701 11.53 25.701 25.701-11.53 25.701-25.701 25.701z" fill="#9b8e99"/></g></g></svg>