<svg id="Capa_1" enable-background="new 0 0 510.234 510.234" height="512" viewBox="0 0 510.234 510.234" width="512" xmlns="http://www.w3.org/2000/svg"><g><path d="m92.091 324.249c-11.946 0-21.666 9.719-21.666 21.666 0 11.946 9.719 21.666 21.666 21.666s21.666-9.719 21.666-21.666c-.001-11.947-9.72-21.666-21.666-21.666zm0 28.331c-3.675 0-6.666-2.99-6.666-6.666s2.99-6.666 6.666-6.666 6.666 2.99 6.666 6.666c-.001 3.676-2.991 6.666-6.666 6.666z"/><path d="m420.723 324.249c-11.946 0-21.666 9.719-21.666 21.666 0 11.946 9.719 21.666 21.666 21.666s21.666-9.719 21.666-21.666-9.72-21.666-21.666-21.666zm0 28.331c-3.675 0-6.666-2.99-6.666-6.666s2.99-6.666 6.666-6.666 6.666 2.99 6.666 6.666-2.991 6.666-6.666 6.666z"/><path d="m491.039 282.009v-.051-67.928c0-8.511-2.277-16.889-6.584-24.229l-8.697-14.821c-2.097-3.573-6.693-4.771-10.264-2.672-3.572 2.096-4.769 6.692-2.672 10.264l8.697 14.821c2.958 5.041 4.521 10.793 4.521 16.638v1.149h-15.06c-8.677 0-15.736 7.059-15.736 15.736v42.806c0 8.677 7.059 15.736 15.736 15.736h15.124c.461 3.7 3.611 6.565 7.436 6.565h.35c6.256 0 11.345 5.089 11.345 11.345v12.152h-30.121c-9.024-15.118-25.541-25.27-44.391-25.27s-35.367 10.152-44.391 25.27h-75.362l9.369-20.896c1.031-2.299 1.554-4.744 1.554-7.265v-61.179h50.129c4.142 0 7.5-3.358 7.5-7.5s-3.358-7.5-7.5-7.5h-35.125v-57.525h82.287l-.061 57.525h-15.139c-4.142 0-7.5 3.358-7.5 7.5s3.358 7.5 7.5 7.5h15.139c8.306 0 15.064-6.758 15.064-15.064v-60.084c0-6.809-5.539-12.361-12.418-12.377h-174.524c-3.029 0-5.956 1.095-8.24 3.083l-81.931 71.284c-2.36 2.054-3.198 5.356-2.102 8.286s3.896 4.872 7.024 4.872h144.895v61.179c0 .392-.081.771-.241 1.128l-12.12 27.033h-85.493c-4.142 0-7.5 3.358-7.5 7.5s3.358 7.5 7.5 7.5h171.301c-.83 3.669-1.282 7.479-1.282 11.396 0 1.257.061 2.499.15 3.734h-225.6c.089-1.235.15-2.477.15-3.734 0-3.916-.453-7.727-1.282-11.396h24.602c4.142 0 7.5-3.358 7.5-7.5s-3.358-7.5-7.5-7.5h-30.595c-5.321-8.915-13.249-16.094-22.725-20.491v-72.902l107.63-93.644c3.579-3.114 8.163-4.829 12.907-4.829h177.475c11.611 0 22.475 6.221 28.352 16.235l6.504 11.084c2.096 3.572 6.691 4.768 10.265 2.673 3.572-2.096 4.769-6.692 2.673-10.265l-6.504-11.084c-8.559-14.584-24.38-23.644-41.289-23.644h-177.475c-8.364 0-16.445 3.023-22.753 8.513l-108.09 94.044h-50.764c-29.052.001-52.687 23.636-52.687 52.688v80.587c0 8.913 7.251 16.164 16.164 16.164h27.792c7.519 19.251 26.254 32.932 48.135 32.932s40.616-13.68 48.135-32.932h232.362c7.519 19.251 26.254 32.932 48.135 32.932 21.882 0 40.617-13.68 48.136-32.932h25.163c8.94 0 16.213-7.273 16.213-16.212v-41.069c-.001-12.05-8.132-22.236-19.196-25.359zm-30.06-51.83h15.06v14.639h-15.795v-13.903c0-.405.33-.736.735-.736zm-.735 43.543v-13.903h15.795v14.639h-15.06c-.405 0-.735-.33-.735-.736zm-163.356-116.068h15.009v57.525h-15.009zm-58.727 0h43.728v57.525h-109.845zm-139.405 72.557v64.483c-2.184-.283-4.406-.444-6.666-.444-18.865 0-35.394 10.169-44.413 25.308-.248-.025-.499-.038-.753-.038h-31.924v-37.918h20.398c12.477 0 22.627-10.151 22.627-22.628s-10.15-22.627-22.627-22.627h-3.284c5.92-3.873 12.985-6.135 20.573-6.135h46.069zm-63.358 21.134c4.206 0 7.627 3.422 7.627 7.627 0 4.206-3.422 7.628-7.627 7.628h-20.365c.186-5.456 1.531-10.622 3.806-15.255zm-19.234 98.304c-.642 0-1.164-.522-1.164-1.164v-13.966h26.707c-.83 3.669-1.282 7.479-1.282 11.396 0 1.257.061 2.499.15 3.734zm75.927 32.931c-20.217 0-36.666-16.448-36.666-36.666s16.448-36.666 36.666-36.666 36.666 16.448 36.666 36.666-16.449 36.666-36.666 36.666zm328.632 0c-20.217 0-36.666-16.448-36.666-36.666s16.448-36.666 36.666-36.666 36.666 16.448 36.666 36.666-16.449 36.666-36.666 36.666zm73.298-32.931h-21.783c.089-1.235.15-2.477.15-3.734 0-3.916-.453-7.727-1.282-11.396h24.128v13.917c0 .669-.544 1.213-1.213 1.213z"/><path d="m277.55 256.916c4.142 0 7.5-3.358 7.5-7.5s-3.358-7.5-7.5-7.5h-14.413c-4.142 0-7.5 3.358-7.5 7.5s3.358 7.5 7.5 7.5z"/></g></svg>