<svg id="Capa_1" enable-background="new 0 0 495.23 495.23" height="512" viewBox="0 0 495.23 495.23" width="512" xmlns="http://www.w3.org/2000/svg"><g><path d="m476.38 281.023c-.193 0-.35-.157-.35-.35v-6.22l-7.602-9.506v-34.954l7.602-14.82v-8.65c0-7.18-1.91-14.23-5.55-20.43l-31.39-53.5c-7.25-12.35-20.5-19.94-34.83-19.94h-177.47c-6.55 0-12.89 2.37-17.83 6.67l-110.21 95.88v134.44h387.77c4.811 0 8.71-3.9 8.71-8.71v-41.06c0-10.411-8.439-18.85-18.85-18.85z" fill="#f79595"/><g><path d="m98.75 215.203h-53.57c-16.112 0-30.246 8.447-38.244 21.146l4.448 4.456-2.6 20.801-8.784 4.987v74.39c0 4.78 3.87 8.66 8.66 8.66h90.09l56.586-20.697v-77.478z" fill="#f79595"/><path d="m98.75 275.836v73.807l49.623-18.15c-2.952-27.405-23.229-49.684-49.623-55.657z" fill="#f47c7c"/></g><path d="m84.586 274.246c-.459 0-.917.005-1.373.015-6.888.148-11.404-7.053-8.45-13.278 7.248-15.275 22.81-25.842 40.838-25.842h14.259l-31.11-19.938h-53.57c-16.115 0-30.25 8.444-38.248 21.142l4.452 4.46-2.6 20.801-8.784 4.987v74.39c0 4.78 3.87 8.66 8.66 8.66h61.761v-20.697h77.617c-4.591-30.907-31.288-54.7-63.452-54.7z" fill="#ee6161"/><path d="m115.601 235.141h83.718c13.954 0 27.297-5.722 36.915-15.831l96.147-101.049c3.017-2.626 6.559-4.521 10.348-5.608h-115.939c-6.55 0-12.89 2.37-17.83 6.67l-110.21 95.88v23.2c5.209-2.097 10.892-3.262 16.851-3.262z" fill="#f47c7c"/><g><g><path d="m272.829 345.913c-1.086 0-2.189-.237-3.234-.738-3.736-1.789-5.314-6.268-3.525-10.003l9.008-18.81 14.068-31.379c.16-.357.241-.736.241-1.128v-103.185c0-4.142 3.358-7.5 7.5-7.5s7.5 3.358 7.5 7.5v103.185c0 2.521-.523 4.965-1.554 7.265l-14.107 31.465c-.026.057-.052.114-.08.171l-9.049 18.896c-1.287 2.69-3.971 4.261-6.768 4.261z" fill="#f47c7c"/></g><g><path d="m495.23 319.513v21.42c0 4.81-3.9 8.71-8.71 8.71h-387.77-90.09c-4.79 0-8.66-3.88-8.66-8.66v-21.47z" fill="#ee6161"/><path d="m84.586 319.513h-84.586v21.47c0 4.78 3.87 8.66 8.66 8.66h75.926z" fill="#e94444"/></g><path d="m145.908 319.513h-36.478v30.13h38.317c.647-3.65 1.004-7.399 1.004-11.232.001-6.575-.997-12.921-2.843-18.898z" fill="#e94444"/><circle cx="84.586" cy="338.411" fill="#736572" r="44.166"/><path d="m413.218 274.246c-35.381 0-64.166 28.785-64.166 64.166 0 3.833.357 7.582 1.004 11.232h126.324c.647-3.65 1.004-7.399 1.004-11.232 0-35.381-28.784-64.166-64.166-64.166z" fill="#f47c7c"/><path d="m349.053 338.411c0 3.833.357 7.582 1.004 11.232h126.323c.647-3.65 1.004-7.399 1.004-11.232 0-6.575-.998-12.921-2.844-18.898h-122.644c-1.845 5.977-2.843 12.323-2.843 18.898z" fill="#e94444"/><circle cx="413.218" cy="338.411" fill="#736572" r="44.166"/><path d="m84.586 335.218c0-15.183 7.671-28.575 19.339-36.524-5.839-2.848-12.405-4.448-19.339-4.448-24.392 0-44.166 19.774-44.166 44.166s19.774 44.166 44.166 44.166c9.209 0 17.767-2.823 24.844-7.645-14.702-7.171-24.844-22.257-24.844-39.715z" fill="#615260"/><path d="m413.218 335.218c0-15.183 7.671-28.575 19.339-36.524-5.839-2.848-12.405-4.448-19.339-4.448-24.392 0-44.166 19.774-44.166 44.166s19.774 44.166 44.166 44.166c9.209 0 17.767-2.823 24.844-7.645-14.702-7.171-24.844-22.257-24.844-39.715z" fill="#615260"/><g id="XMLID_199_"><g><path d="m281.88 142.653h-52.14c-1.22 0-2.4.44-3.32 1.24l-78.807 68.563c-1.08.94-.416 2.717 1.017 2.717h133.25l16.912-7.176v-48.707z" fill="#d5eaff"/><path d="m295.977 156.52-14.097-13.867h-52.14c-1.22 0-2.4.44-3.32 1.24l-78.807 68.563c-1.08.94-.416 2.717 1.017 2.717h91.54z" fill="#b8ddff"/><path d="m404.32 142.653h-.06-92.37l-9.788 12.617v52.728l9.788 7.176h89.73c4.18 0 7.56-3.38 7.56-7.56v-60.08c0-2.691-2.17-4.881-4.86-4.881z" fill="#d5eaff"/><path d="m281.88 142.653h30.01v72.52h-30.01z" fill="#f47c7c"/><path d="m281.88 142.653v28.683l27.292-28.683z" fill="#ee6161"/></g></g><g id="XMLID_206_"><g><g id="XMLID_207_"><g><path d="m38.59 240.773c2.74 2.74 4.43 6.52 4.43 10.7 0 8.35-6.77 15.12-15.13 15.12h-27.89v-6.2c0-8.84 2.54-17.09 6.93-24.05h20.96c4.18 0 7.96 1.69 10.7 4.43z" fill="#fedf30"/></g></g></g></g><g><path d="m270.045 249.412h-14.413c-4.142 0-7.5-3.358-7.5-7.5s3.358-7.5 7.5-7.5h14.413c4.142 0 7.5 3.358 7.5 7.5s-3.358 7.5-7.5 7.5z" fill="#f47c7c"/></g><g id="XMLID_208_"><g><path d="m470.688 232.815h-19.319l-6.129 11.998v21.41c0 4.54 3.69 8.23 8.24 8.23h22.55v-29.64z" fill="#e94444"/></g></g><path d="m84.586 352.577c-7.811 0-14.166-6.354-14.166-14.166s6.354-14.166 14.166-14.166 14.166 6.355 14.166 14.166-6.355 14.166-14.166 14.166z" fill="#f9f7f8"/><path d="m87.955 352.155c-2.17-5.216-3.368-10.936-3.368-16.938 0-3.763.474-7.416 1.36-10.903-.448-.043-.901-.069-1.36-.069-7.811 0-14.166 6.355-14.166 14.166s6.354 14.166 14.166 14.166c1.162 0 2.286-.156 3.368-.422z" fill="#d7d0d6"/><path d="m413.218 352.577c-7.811 0-14.166-6.354-14.166-14.166s6.354-14.166 14.166-14.166 14.166 6.355 14.166 14.166-6.355 14.166-14.166 14.166z" fill="#f9f7f8"/><path d="m416.594 352.171c-2.17-5.216-3.376-10.952-3.376-16.953 0-3.763.465-7.416 1.352-10.904-.448-.043-.893-.068-1.352-.068-7.811 0-14.166 6.355-14.166 14.166s6.354 14.166 14.166 14.166c1.163-.001 2.295-.142 3.376-.407z" fill="#d7d0d6"/></g><path d="m476.03 215.173v29.64h-30.79v-21.4c0-4.55 3.69-8.24 8.24-8.24z" fill="#fdb441"/></g></svg>