<svg id="Capa_1" enable-background="new 0 0 512.447 512.447" height="512" viewBox="0 0 512.447 512.447" width="512" xmlns="http://www.w3.org/2000/svg"><g><g><g id="XMLID_165_"><g><path d="m486.643 280.668c2.72.15 4.6 2.8 3.83 5.42l-5.34 18.28c-.65 2.23-2.97 3.52-5.2 2.89l-55.04-15.33-1.05-9.89 3.16-1.5 28.69-12.65 13.08 11.81z" fill="#a79ba7"/></g></g><path d="m381.975 148.08 19.754-28.375 11.866-15.974c1.534-2.065 1.757-4.824.576-7.109l-4.88-9.435c-.936-1.81-1.002-3.947-.18-5.811l5.713-12.95c.81-1.835.759-3.935-.138-5.729l-3.797-7.593c-.9-1.8-.948-3.907-.13-5.746l3.096-6.966c1.306-2.939.352-6.391-2.278-8.241l-10.401-7.319-17.7-17.7c-1.017-1.017-2.755-.297-2.755 1.141v86.272l-12.357 40.198-8.456 28.484z" fill="#a79ba7"/><path d="m361.787 190.913 20.784-36.274c1.2-2.094.962-4.716-.596-6.559l-7.978-9.439c-1.378-1.631-3.548-2.362-5.632-1.898l-24.838 5.531-55.668 17.722 40.479 70.213z" fill="#b5adb6"/><path d="m144.082 136.743-12.357-40.198v-86.271c0-1.438-1.738-2.158-2.755-1.141l-17.699 17.699-10.401 7.319c-2.63 1.851-3.584 5.303-2.278 8.241l3.096 6.966c.817 1.839.769 3.946-.131 5.746l-3.797 7.593c-.897 1.794-.947 3.894-.138 5.729l5.713 12.95c.823 1.864.756 4.001-.18 5.811l-4.88 9.435c-1.182 2.285-.959 5.044.576 7.109l11.866 15.974 19.754 28.375s19.192 28.725 19.485 27.844c.295-.881-5.874-39.181-5.874-39.181z" fill="#a79ba7"/><path d="m150.66 190.913-20.784-36.274c-1.2-2.094-.962-4.716.596-6.559l7.978-9.439c1.378-1.631 3.548-2.362 5.632-1.898l24.838 5.531 50.573 11.504-29.082 99.425z" fill="#b5adb6"/><g><g id="XMLID_164_"><g><path d="m352.307 181.496c23.79 32.42 39.337 75.762 39.337 124.612 0 99.35-60.63 179.89-135.42 179.89s-135.42-80.54-135.42-179.89c0-48.85 15.543-92.371 39.333-124.791l30.277-27.539h138.76z" fill="#b5adb6"/></g></g><path d="m260.024 480.042h.01z"/><g id="XMLID_166_"><g><path d="m469.893 469.688-5.87 16.31 5.31 17.13c.28.9-.39 1.82-1.34 1.82h-28.68c-.78 0-1.41-.63-1.41-1.4v-61.28z" fill="#a79ba7"/></g></g><g id="XMLID_168_"><g><g><path d="m88.613 281.938-.04.35-1.02 9.64-55.04 15.33c-2.23.63-4.55-.66-5.2-2.89l-5.34-18.28c-.77-2.62 1.11-5.27 3.83-5.42l17.87-.97 13.08-11.81 28.69 12.65z" fill="#a79ba7"/></g></g></g><g id="XMLID_167_"><g><path d="m74.543 442.268v61.28c0 .77-.63 1.4-1.41 1.4h-28.68c-.95 0-1.62-.92-1.34-1.82l5.31-17.13-5.87-16.31z" fill="#a79ba7"/></g></g><path d="m279.297 108.545h-46.147v-18.816c0-12.743 10.331-23.074 23.074-23.074 12.743 0 23.074 10.331 23.074 23.074v18.816z" fill="#a79ba7"/><g fill="#918291"><circle cx="340.785" cy="19.948" r="12.448"/><circle cx="171.662" cy="19.948" r="12.448"/></g></g><path d="m256.056 225.756c35.161 0 70.73-8.375 105.718-24.89l2.375-1.114c-3.66-6.406-7.624-12.507-11.843-18.256l-23.133-27.718h-85.259-3.841-49.66l-30.277 27.539c-23.79 32.42-39.333 75.941-39.333 124.791 0 99.35 60.63 179.89 135.42 179.89 9.158 0 18.102-1.215 26.75-3.517-61.977-16.497-108.669-89.189-108.669-176.373 0-9.093.539-18 1.57-26.686 3.847-32.413 32.244-56.47 64.805-54.202 5.13.357 10.257.536 15.377.536z" fill="#a79ba7"/><path d="m353.238 182.78c-65.123 30.741-129.796 30.53-194.028 0 0-47.626 37.152-86.235 82.981-86.235h28.067c45.828 0 82.979 38.609 82.98 86.235z" fill="#918291"/><path d="m273.825 114.868h28.067c8.192 0 16.116 1.248 23.591 3.547-14.668-13.599-34.022-21.87-55.225-21.87h-28.068c-45.829 0-82.981 38.609-82.981 86.235 10.6 5.038 21.212 9.233 31.836 12.617 2.83-44.964 38.798-80.529 82.78-80.529z" fill="#7a6d79"/></g><path d="m495.99 278.123c-2.083-2.942-5.342-4.742-8.941-4.939l-15.219-.83-11.108-10.034c-2.194-1.981-5.347-2.492-8.055-1.296l-22.465 9.911-2.609-24.494c-.732-6.876-5.14-12.833-11.501-15.545l-34.371-14.655c-3.498-8.389-7.505-16.445-11.989-24.107l19.346-33.765c1.666-2.906 2.116-6.273 1.43-9.417l17.311-24.867 11.797-15.88c3.22-4.333 3.697-10.231 1.217-15.027l-4.712-9.108 5.566-12.615c1.717-3.892 1.61-8.307-.293-12.11l-3.634-7.271 2.948-6.634c2.753-6.194.729-13.521-4.815-17.421l-9.871-6.946-17.242-17.244c-2.616-2.616-6.514-3.391-9.933-1.976-3.418 1.416-5.626 4.721-5.626 8.42v44.693c0 4.142 3.357 7.5 7.5 7.5s7.5-3.358 7.5-7.5v-30.482l7.65 7.651c.305.305.635.583.987.83l9.886 6.957-2.84 6.389c-1.734 3.902-1.634 8.33.276 12.146l3.635 7.272-5.568 12.621c-1.746 3.96-1.608 8.436.381 12.284l4.66 9.009-11.581 15.59c-.046.062-.091.124-.135.187l-14.172 20.36-1.675-1.982c-.61-.722-1.287-1.366-2.015-1.93l10.181-33.12c.22-.714.331-1.457.331-2.204v-9.616c0-4.142-3.357-7.5-7.5-7.5s-7.5 3.358-7.5 7.5v8.489l-10.744 34.952-15.141 3.372c-8.504-14.294-20.607-26.053-34.991-33.917l9.424-30.069 22.54-12.005c2.446-1.303 3.975-3.848 3.975-6.62v-12.71c7.291-2.971 12.448-10.126 12.448-18.472 0-11-8.949-19.948-19.948-19.948s-19.948 8.949-19.948 19.948c0 8.346 5.157 15.501 12.448 18.472v8.207l-21.279 11.334c-1.738.926-3.043 2.498-3.632 4.377l-9.841 31.4c-3.807-1.301-7.725-2.347-11.736-3.118v-.891c0-7.752-2.906-14.835-7.678-20.23v-14.251c0-4.142-3.357-7.5-7.5-7.5s-7.5 3.358-7.5 7.5v4.946c-2.521-.675-5.166-1.04-7.896-1.04-2.372 0-4.678.28-6.896.794v-4.701c0-4.142-3.357-7.5-7.5-7.5s-7.5 3.358-7.5 7.5v13.173c-5.364 5.511-8.678 13.028-8.678 21.308v.891c-4.01.771-7.928 1.817-11.736 3.118l-9.841-31.4c-.589-1.879-1.894-3.451-3.632-4.377l-21.279-11.334v-8.207c7.291-2.971 12.448-10.126 12.448-18.472 0-11-8.949-19.948-19.948-19.948s-19.948 8.949-19.948 19.948c0 8.346 5.157 15.501 12.448 18.472v12.71c0 2.771 1.528 5.317 3.975 6.62l22.541 12.006 9.424 30.069c-14.383 7.864-26.486 19.623-34.991 33.917l-15.141-3.372-10.744-34.952v-85.144c0-3.699-2.208-7.004-5.626-8.42-3.42-1.416-7.316-.64-9.933 1.976l-17.241 17.242-9.871 6.946c-5.542 3.9-7.567 11.227-4.815 17.421l2.948 6.635-3.633 7.269c-1.904 3.805-2.011 8.22-.293 12.112l5.565 12.615-4.713 9.109c-2.479 4.795-2.002 10.693 1.218 15.026l11.797 15.881 17.311 24.866c-.687 3.145-.237 6.512 1.428 9.418l19.347 33.765c-4.484 7.662-8.491 15.717-11.989 24.107l-34.371 14.655c-6.361 2.712-10.769 8.669-11.501 15.545l-2.609 24.494-22.465-9.911c-2.708-1.195-5.86-.686-8.055 1.296l-11.108 10.034-15.22.83c-3.599.197-6.857 1.997-8.94 4.939-2.082 2.942-2.696 6.613-1.685 10.073l5.343 18.278c1.49 5.098 6.208 8.441 11.294 8.441 1.032 0 2.082-.138 3.121-.427l55.032-15.331c2.961-.825 5.119-3.374 5.445-6.431l4.763-44.698c.157-1.476 1.103-2.754 2.468-3.336l21.515-9.174c-6.853 22.149-10.449 46.04-10.449 70.592 0 7.674.351 15.279 1.04 22.783l-29.738 29.857c-2.992 3.006-4.192 7.424-3.132 11.53l11.915 46.153-23.702 20.12c-.014.011-.026.023-.04.034l-31.979 27.41c-2.365 2.027-3.231 5.306-2.175 8.237l5.024 13.94-4.567 14.73c-.835 2.691-.336 5.651 1.335 7.919s4.351 3.622 7.168 3.622h28.684c4.909 0 8.903-3.994 8.903-8.903v-57.802l22.458-19.063c3.502-2.974 5.022-7.768 3.874-12.215l-11.957-46.315 20.394-20.477c5.803 33.832 18.684 64.932 37.666 90.148 27.028 35.904 63.163 55.677 101.748 55.677s74.72-19.773 101.748-55.677c18.983-25.216 31.863-56.316 37.666-90.148l20.394 20.477-11.957 46.315c-1.148 4.447.372 9.241 3.875 12.216l22.457 19.063v57.802c0 4.909 3.994 8.903 8.903 8.903h28.684c2.817 0 5.497-1.354 7.168-3.622s2.17-5.229 1.336-7.918l-4.568-14.731 5.024-13.94c1.057-2.931.19-6.21-2.175-8.237l-31.979-27.41c-.014-.011-.026-.023-.04-.034l-23.702-20.12 11.915-46.154c1.061-4.106-.14-8.524-3.134-11.531l-29.736-29.855c.688-7.504 1.04-15.109 1.04-22.783 0-24.551-3.597-48.442-10.449-70.591l21.515 9.174c1.365.582 2.311 1.861 2.468 3.336l4.763 44.698c.326 3.057 2.484 5.605 5.445 6.431l55.033 15.331c1.04.29 2.088.427 3.121.427 5.085 0 9.803-3.344 11.292-8.44l5.345-18.28c1.012-3.461.398-7.132-1.684-10.074zm-155.205-263.123c2.729 0 4.948 2.22 4.948 4.948s-2.22 4.948-4.948 4.948-4.948-2.22-4.948-4.948 2.219-4.948 4.948-4.948zm-169.123 0c2.729 0 4.948 2.22 4.948 4.948s-2.22 4.948-4.948 4.948-4.948-2.22-4.948-4.948 2.219-4.948 4.948-4.948zm-138.053 284.173-3.285-11.236 13.759-.75c1.715-.093 3.345-.772 4.619-1.923l9.471-8.555 21.703 9.575zm33.431 198.274h-14.314l2.862-9.229c.482-1.558.444-3.23-.108-4.764l-4.121-11.436 15.681-13.44zm378.367-38.869 15.681 13.44-4.121 11.436c-.553 1.534-.591 3.207-.108 4.764l2.862 9.229h-14.313v-38.869zm-76.451-314.283 6.495 7.685-14.837 25.895c-.533-10.656-2.797-20.844-6.496-30.275zm-128.292-55.25c.359-8.272 7.201-14.89 15.56-14.89s15.2 6.618 15.56 14.89h-1.526-28.068zm1.526 15h28.066c40.096 0 72.99 32.777 75.346 73.996-29.843 13.418-59.941 20.216-89.549 20.216-.051 0-.106 0-.157 0-29.54-.024-59.476-6.818-89.052-20.202 2.352-41.223 35.248-74.01 75.346-74.01zm62.97 202.066c0 47.309-5.748 91.685-16.186 124.954-5.131 16.353-11.314 29.233-17.695 37.42 1.701-8.886 3.238-20.437 4.579-34.461 3.273-34.206 5.075-79.633 5.075-127.913 0-33.445-.875-65.796-2.533-94.118 5.917-.619 11.835-1.482 17.751-2.592 5.898 28.732 9.009 61.978 9.009 96.71zm-103.528-99.904c-1.553 7.566-2.935 15.518-4.121 23.734-.592 4.1 2.251 7.903 6.351 8.495.364.053.725.078 1.082.078 3.667 0 6.874-2.693 7.413-6.429 1.133-7.842 2.447-15.425 3.922-22.633 5.918 1.106 11.84 1.962 17.765 2.574-1.657 28.311-2.531 60.65-2.531 94.086 0 48.28 1.802 93.708 5.075 127.913 1.342 14.028 2.879 25.582 4.58 34.468-6.381-8.19-12.565-21.074-17.697-37.428-10.438-33.269-16.186-77.645-16.186-124.954 0-14.383.543-28.701 1.614-42.557.319-4.13-2.77-7.736-6.899-8.056-4.125-.319-7.736 2.77-8.056 6.899-1.101 14.239-1.659 28.946-1.659 43.713 0 61.316 10.213 125.219 29.621 160.287-11.315-8.28-21.796-20.675-30.872-36.771-18.534-32.87-28.741-76.735-28.741-123.515 0-38.273 7.081-75.511 20.017-105.738 6.434 2.24 12.875 4.182 19.322 5.834zm44.882 99.904c0-33.088.862-65.069 2.496-93.053 2.349.078 4.698.126 7.047.126 2.459 0 4.919-.056 7.38-.141 1.635 27.991 2.497 59.977 2.497 93.068 0 43.814-1.527 85.952-4.301 118.652-1.793 21.141-3.757 34.334-5.409 42.501-1.652-8.167-3.616-21.36-5.409-42.501-2.774-32.7-4.301-74.838-4.301-118.652zm-129.775-190.878-11.581-15.59 4.662-9.011c1.987-3.845 2.125-8.321.378-12.283l-5.567-12.62 3.634-7.27c1.911-3.818 2.012-8.246.277-12.147l-2.84-6.39 9.886-6.957c.353-.248.683-.525.987-.83l7.65-7.651v72.061c0 .747.111 1.49.331 2.204l10.181 33.12c-.728.564-1.405 1.208-2.016 1.93l-1.674 1.98-14.174-20.36c-.043-.062-.088-.125-.134-.186zm26.752 29.062 14.838 3.304c-3.7 9.431-5.963 19.619-6.496 30.275l-14.837-25.895zm-15.187 161.816c0-42.528 11.437-82.808 32.339-114.416 2.549 1.154 5.099 2.277 7.652 3.338-13.569 31.973-20.999 71.056-20.999 111.078 0 49.319 10.894 95.801 30.675 130.882 2.709 4.804 5.545 9.319 8.494 13.543-34.989-30.796-58.161-84.028-58.161-144.425zm197.649 144.451c11.28-16.097 20.728-36.25 27.583-59.721 1.161-3.976-1.12-8.141-5.097-9.302-3.977-1.16-8.141 1.121-9.302 5.096-8.104 27.747-20.219 51.039-35.032 67.357-4.344 4.785-8.867 8.891-13.521 12.304 19.375-35.089 29.574-98.922 29.574-160.186 0-35.818-3.233-70.185-9.364-99.958 6.443-1.651 12.884-3.591 19.319-5.826 12.949 30.237 20.037 67.491 20.037 105.784 0 16.798-1.341 33.433-3.984 49.442-.675 4.087 2.091 7.947 6.178 8.622.413.068.824.101 1.23.101 3.604 0 6.784-2.606 7.391-6.279 2.777-16.815 4.186-34.272 4.186-51.887 0-40.034-7.434-79.127-21.012-111.107 2.553-1.056 5.106-2.173 7.657-3.321 20.906 31.61 32.346 71.894 32.346 114.427.001 60.417-23.184 113.663-58.189 144.454zm152.885-151.389-46.267-12.889 21.703-9.575 9.471 8.555c1.274 1.15 2.904 1.83 4.619 1.923l13.759.75z"/></g></svg>