<svg id="Layer_5" enable-background="new 0 0 64 64" height="512" viewBox="0 0 64 64" width="512" xmlns="http://www.w3.org/2000/svg" xmlns:xlink="http://www.w3.org/1999/xlink"><linearGradient id="SVGID_1_" gradientUnits="userSpaceOnUse" x1="32" x2="32" y1="63" y2="1"><stop offset="0" stop-color="#9f2fff"/><stop offset="1" stop-color="#0bb1d3"/></linearGradient><path d="m41 51h2v8h-2zm4 0v8h2v-8zm10-15.01 8-1.143v28.153h-62v-28h2.08c.339-2.353 1.848-4.326 3.92-5.315v-18.685h4v-6h2v-4h10v4h2v6h4v14h8v-10h2v-7.847l2-.333v-3.82h2v3.486l2-.333v-5.153h2v4.819l2-.333v-2.486h2v2.153l2-.333v10.18h2zm-14-20.99h10v-7.819l-10 1.666zm-2 10h2v17.333l3-4 3 4v-5.201l6-.857v-19.275h-14zm0 2h-14v2h14zm0 34h10v-12h-10zm9-14-4-5.333-4 5.333zm-33-42h6v-2h-6zm-2 6h10v-4h-10zm-4 18.08c.328-.047.66-.08 1-.08h10c1.074 0 2.089.251 3 .685v-4.685h4v-12h-18zm-3.899 5.92h19.798c-.465-2.279-2.484-4-4.899-4h-10c-2.414 0-4.434 1.721-4.899 4zm-2.101 2v2h24v-2zm20 14h-4v4h4zm-6 0h-4v4h4zm-4 6v4h4v-4zm6 4h4v-4h-4zm4-16h-4v4h4zm-6 0h-4v4h4zm-6 0h-4v4h4zm-4 10h4v-4h-4zm0 6h4v-4h-4zm20 0v-20h-24v20h2v-18h20v18zm2-26v26h8v-13.333l2-2.667v-14h-14v.111c1.014 1.037 1.704 2.387 1.92 3.889zm32 2.153-12 1.714v6.133l2 2.667v13.333h10zm-28 11.847h-2v2h2zm0-12h-2v2h2zm0-4h-2v2h2zm0 8h-2v2h2zm0 12h-2v2h2zm0-8h-2v2h2zm0 12h-2v2h2zm4-24h-2v2h2zm0 8h-2v2h2zm0-4h-2v2h2zm22 12h-2v2h2zm0 4h-2v2h2zm0-12h-2v2h2zm0 4h-2v2h2zm0 12h-2v2h2zm-4 0h-2v2h2zm0-4h-2v2h2zm0-12h-2v2h2zm0 4h-2v2h2zm0 4h-2v2h2zm-38-34h-2v2h2zm-4 0h-2v2h2zm8 0h-2v2h2zm4 0h-2v2h2zm-4 4h-2v2h2zm4 0h-2v2h2zm-12 0h-2v2h2zm4 0h-2v2h2zm4 4h-2v2h2zm-8 0h-2v2h2zm4 0h-2v2h2zm30-4h-2v2h2zm4 0h-2v2h2zm-8 0h-2v2h2zm4 4h-2v2h2zm-4 0h-2v2h2zm8 0h-2v2h2zm-4 8h-2v2h2zm0 4h-2v2h2zm0-8h-2v2h2zm4 4h-2v2h2zm0-4h-2v2h2z" fill="url(#SVGID_1_)"/></svg>