<svg height="512" viewBox="0 0 128 128" width="512" xmlns="http://www.w3.org/2000/svg"><g><path d="m77.9 6.5h-27.8a6 6 0 0 0 -6 6v26.17h39.8v-26.17a6 6 0 0 0 -6-6zm0 26.17h-27.8v-20.17h27.8z" fill="#fdd82e"/><path d="m106.654 24.192h-85.308a6 6 0 0 0 -6 6v61.875h97.308v-61.875a6 6 0 0 0 -6-6z" fill="#fdd82e"/><path d="m106.654 61a1.749 1.749 0 0 1 -1.75-1.75v-7a1.75 1.75 0 0 1 3.5 0v7a1.749 1.749 0 0 1 -1.75 1.75z" fill="#ff9800"/><g fill="#eaeaf0"><path d="m67.665 49.827-2.709-7.199h-5.416l-2.709 7.199 2.417 6.423v25.442h6v-25.442z"/><path d="m86.146 43.3-1.146-.662v5.882l-2.85 1.15-2.84-1.15v-5.892l-1.162.671a8 8 0 0 0 -4 6.925 8.01 8.01 0 0 0 4 6.921 8.253 8.253 0 0 0 1 .483v22.422h6v-22.422a8.059 8.059 0 0 0 1-.48 8 8 0 0 0 4-6.921 8 8 0 0 0 -4.002-6.927z"/><path d="m42.352 42.628-3 3.091v18.281h6v-18.281z"/></g><path d="m46.852 61.305-9 .001v5.696l1.5 3.333v10.251h6v-10.251l1.5-3.333z" fill="#f7502f"/><path d="m15.346 81.692h97.308a0 0 0 0 1 0 0v27.808a12 12 0 0 1 -12 12h-73.308a12 12 0 0 1 -12-12v-27.808a0 0 0 0 1 0 0z" fill="#f7502f"/><path d="m76.012 99.942h-24.024a1.75 1.75 0 0 1 0-3.5h24.024a1.75 1.75 0 0 1 0 3.5z" fill="#fdd82e"/><path d="m32.996 81.692h6v24h-6z" fill="#fdd82e"/><path d="m31.496 89.192h9v9h-9z" fill="#d93922"/><path d="m89.004 81.692h6v24h-6z" fill="#fdd82e" transform="matrix(-1 0 0 -1 184.007 187.385)"/><path d="m87.504 89.192h9v9h-9z" fill="#d93922" transform="matrix(-1 0 0 -1 184.007 187.385)"/><path d="m15.346 75.692h97.308v6h-97.308z" fill="#ff9800"/><path d="m21.346 24.192h85.308a6 6 0 0 1 6 6v6a0 0 0 0 1 0 0h-97.308a0 0 0 0 1 0 0v-6a6 6 0 0 1 6-6z" fill="#ff9800"/></g></svg>