<?xml version="1.0"?>
<svg xmlns="http://www.w3.org/2000/svg" width="512" height="512" viewBox="0 0 128 128"><g><path d="M114.4,30.19a7.759,7.759,0,0,0-7.75-7.75h-21V12.5A7.759,7.759,0,0,0,77.9,4.75H50.1a7.759,7.759,0,0,0-7.75,7.75v9.94h-21a7.759,7.759,0,0,0-7.75,7.75l0,79.31a13.765,13.765,0,0,0,13.75,13.75h73.308A13.765,13.765,0,0,0,114.4,109.5ZM94.754,90.942v5.5h-5.5v-5.5Zm-4,9h2.5v4h-2.5Zm2.5-12.5h-2.5v-4h2.5Zm-76.15-7.5v-2.5h93.8v2.5Zm21.646,11v5.5h-5.5v-5.5Zm-4,9h2.5v4h-2.5Zm2.5-12.5h-2.5v-4h2.5Zm73.65-13.5h-24V58.733c.039-.02.079-.043.121-.064a9.745,9.745,0,0,0,3.571-13.32,9.95,9.95,0,0,0-3.571-3.567l-1.15-.66A1.75,1.75,0,0,0,83.25,42.64v4.7l-1.1.443L81.06,47.34V42.63a1.751,1.751,0,0,0-2.626-1.516l-1.158.67a9.745,9.745,0,0,0,.016,16.892l.108.059V73.942H67V56.567l2.3-6.122a1.756,1.756,0,0,0,0-1.229l-2.7-7.2A1.75,1.75,0,0,0,64.96,40.88H59.54A1.75,1.75,0,0,0,57.9,42.014l-2.71,7.2a1.756,1.756,0,0,0,0,1.233L57.5,56.569V73.942H47.1V70.715l1.346-3A1.757,1.757,0,0,0,48.6,67V61.31a1.744,1.744,0,0,0-1.5-1.725V45.72a1.75,1.75,0,0,0-.5-1.219l-3-3.09a1.8,1.8,0,0,0-2.511,0l-3,3.09A1.749,1.749,0,0,0,37.6,45.72V59.585a1.743,1.743,0,0,0-1.5,1.725V67a1.756,1.756,0,0,0,.153.717l1.347,3v3.227H17.1v-36h93.8ZM79.813,56.011a7.289,7.289,0,0,1-.786-.375,6.242,6.242,0,0,1-1.467-9.648V48.52a1.751,1.751,0,0,0,1.092,1.622l2.841,1.15a1.754,1.754,0,0,0,1.313,0l2.849-1.15A1.753,1.753,0,0,0,86.75,48.52V46.005a6.331,6.331,0,0,1,.816,1.1,6.241,6.241,0,0,1,0,6.239,6.138,6.138,0,0,1-2.25,2.266,7.944,7.944,0,0,1-.828.4A1.751,1.751,0,0,0,83.4,57.63V73.942H80.9V57.63A1.749,1.749,0,0,0,79.813,56.011Zm-18.925-.378L58.7,49.83l2.051-5.45h3l2.044,5.45-2.18,5.805a1.77,1.77,0,0,0-.111.615V73.942H61V56.25A1.755,1.755,0,0,0,60.888,55.633ZM43.6,59.56H41.1V46.43l1.25-1.287L43.6,46.43ZM40.946,69.623l-1.346-3V63.06h5.5v3.565l-1.347,3a1.756,1.756,0,0,0-.153.717v3.6H41.1v-3.6A1.757,1.757,0,0,0,40.946,69.623ZM45.85,12.5A4.254,4.254,0,0,1,50.1,8.25H77.9a4.254,4.254,0,0,1,4.25,4.25v9.94h-2.5V12.5a1.749,1.749,0,0,0-1.75-1.75H50.1a1.749,1.749,0,0,0-1.75,1.75v9.94h-2.5Zm6,9.94V14.25h24.3v8.19Zm-30.5,3.5h85.3a4.255,4.255,0,0,1,4.25,4.25v4.252H17.1V30.19A4.255,4.255,0,0,1,21.35,25.94ZM110.9,109.5a10.261,10.261,0,0,1-10.25,10.25H27.346A10.261,10.261,0,0,1,17.1,109.5V83.442H31.25v4.025a1.745,1.745,0,0,0-1.5,1.725v9a1.745,1.745,0,0,0,1.5,1.726v5.772A1.749,1.749,0,0,0,33,107.44h6a1.749,1.749,0,0,0,1.75-1.75V99.917a1.745,1.745,0,0,0,1.5-1.725v-9a1.745,1.745,0,0,0-1.5-1.724V83.442h46.5v4.026a1.745,1.745,0,0,0-1.5,1.724v9a1.745,1.745,0,0,0,1.5,1.725v5.773A1.749,1.749,0,0,0,89,107.44h6a1.749,1.749,0,0,0,1.75-1.75V99.918a1.745,1.745,0,0,0,1.5-1.726v-9a1.745,1.745,0,0,0-1.5-1.725V83.442H110.9Z"/><path d="M106.654,61a1.749,1.749,0,0,0,1.75-1.75v-7a1.75,1.75,0,0,0-3.5,0v7A1.749,1.749,0,0,0,106.654,61Z"/><path d="M76.012,96.442H51.988a1.75,1.75,0,0,0,0,3.5H76.012a1.75,1.75,0,0,0,0-3.5Z"/></g></svg>
