<svg id="Capa_1" enable-background="new 0 0 512 512" height="512" viewBox="0 0 512 512" width="512" xmlns="http://www.w3.org/2000/svg"><g><path d="m344.062 334.379c-7.324-1.256-13.062-8.158-13.062-15.714v-19.261c18.546-18.946 30-44.86 30-73.404v-76h90v-30h-90v-15c0-57.897-47.103-105-105-105s-105 47.103-105 105v15h-90v30h90v76c0 28.543 11.454 54.458 30 73.404v19.261c0 7.556-5.737 14.458-13.062 15.714-77.975 13.368-136.938 81.326-136.938 162.621v15h450v-15c0-81.352-59.014-149.261-136.938-162.621zm-163.062-229.379c0-41.355 33.645-75 75-75s75 33.645 75 75v15h-150zm0 45h150s-.031 77.19-.045 77.786c-21.944-8.302-44.698-16.786-74.955-16.786s-53.012 8.484-74.955 16.786c-.014-.596-.045-1.187-.045-1.786zm75 151c-30.193 0-56.259-17.944-68.139-43.719 23.876-9.016 42.291-16.281 68.139-16.281 25.868 0 44.385 7.314 68.139 16.281-11.88 25.775-37.946 43.719-68.139 43.719zm48.867 35.92-48.867 48.867-48.867-48.866c2.203-5.012 3.54-10.448 3.812-16.091 13.661 6.516 28.939 10.17 45.055 10.17s31.394-3.654 45.054-10.17c.273 5.642 1.61 11.078 3.813 16.09zm-153.867 32.726c7.062-2.475 14.411-4.397 22.008-5.699 4.945-.848 9.608-2.525 13.867-4.859l62.912 62.912h-98.787zm-30 112.354h-59.181c4.437-40.356 26.595-75.691 59.181-97.394zm240 0h-210v-30h210zm0-60h-98.787l62.911-62.912c4.259 2.334 8.921 4.011 13.866 4.859 7.597 1.302 14.947 3.225 22.009 5.7v52.353zm30 60c0-57.892 0-71.375 0-97.393 32.585 21.702 54.743 57.037 59.181 97.393z"/></g></svg>