<svg id="Capa_1" enable-background="new 0 0 512 512" height="512" viewBox="0 0 512 512" width="512" xmlns="http://www.w3.org/2000/svg"><g><path d="m391 356.5-15 4.5-15-18.62c-5.314-2.662-34.653-9.807-36.599-10.781l-68.401 38.1-68.401-38.101c-3.085 1.403-31.681 8.338-36.599 10.801l-15 18.601-15-4.6c-50.7 29.101-90 81.499-90 140.6v15h90l30-31h105 105l30 31h90v-15c0-59.101-39.3-111.399-90-140.5z" fill="#83b324"/><path d="m391 512h90v-15c0-59.101-39.3-111.399-90-140.5l-15 4.5-15-18.62c-5.314-2.662-34.653-9.807-36.599-10.781l-68.401 38.1v111.301h105z" fill="#5d8019"/><path d="m316 318.699v-47.699h-60-60v47.699c0 6.901-3.6 10.801-8.401 12.9l68.401 68.1 68.401-68.101c-4.801-2.098-8.401-5.998-8.401-12.899z" fill="#a34f3e"/><path d="m316 318.699v-47.699h-60v128.699l68.401-68.101c-4.801-2.098-8.401-5.998-8.401-12.899z" fill="#873f2e"/><path d="m391 421v-64.5c-9.659-5.544-19.7-10.31-30-14.12v108.62z" fill="#282866"/><path d="m151 451v-108.6c-10.3 3.81-20.345 8.457-30 14v64.6z" fill="#404080"/><path d="m256 421h-135v91h135 135v-91z" fill="#5c5c99"/><path d="m256 421h135v91h-135z" fill="#404080"/><path d="m256 0c-57.9 0-105 48.1-105 106v30h105 105v-30c0-57.849-47.278-106-105-106z" fill="#ffd396"/><path d="m361 106c0-57.849-47.278-106-105-106v136h105z" fill="#ffb64c"/><path d="m256 136h-105v90c0 3.9.3 8.099.901 11.999h104.099 104.099c.601-3.9.901-8.099.901-11.999v-90z" fill="#c86e59"/><path d="m361 226v-90h-105v101.999h104.099c.601-3.9.901-8.099.901-11.999z" fill="#a34f3e"/><path d="m256 121h-195v30h195 195v-30z" fill="#ffb64c"/><path d="m256 121h195v30h-195z" fill="#ff9100"/><path d="m256 211c-42.07 0-69.161 16.412-104.099 26.999 4.33 49.138 48.602 93.001 104.099 93.001 56.072 0 99.803-44.271 104.099-93.001-35.431-10.736-61.976-26.999-104.099-26.999z" fill="#fff5f5"/><path d="m360.099 237.999c-35.431-10.736-61.976-26.999-104.099-26.999v120c56.072 0 99.803-44.271 104.099-93.001z" fill="#efe2dd"/></g></svg>