<?xml version="1.0" encoding="iso-8859-1"?>
<!-- Generator: Adobe Illustrator 19.0.0, SVG Export Plug-In . SVG Version: 6.00 Build 0)  -->
<svg version="1.1" id="Capa_1" xmlns="http://www.w3.org/2000/svg" xmlns:xlink="http://www.w3.org/1999/xlink" x="0px" y="0px"
	 viewBox="0 0 512 512" style="enable-background:new 0 0 512 512;" xml:space="preserve">
<g>
	<g>
		<path d="M133.094,62.71c-28.509,0-51.702,23.194-51.702,51.703c0,28.509,23.193,51.703,51.702,51.703
			c28.509,0,51.703-23.194,51.703-51.703C184.797,85.904,161.603,62.71,133.094,62.71z M133.094,136.116
			c-11.967,0-21.702-9.736-21.702-21.703c0-11.967,9.735-21.703,21.702-21.703s21.703,9.736,21.703,21.703
			C154.797,126.38,145.061,136.116,133.094,136.116z"/>
	</g>
</g>
<g>
	<g>
		<path d="M460.546,171.913c11.833-16.741,18.225-36.697,18.225-57.501c0-55.065-44.799-99.864-99.864-99.864
			c-25.443,0-49.676,9.575-68.234,26.961c-14.652,13.728-24.691,31.293-29.09,50.542c-17.022-1.342-34.143-1.342-51.164,0
			c-4.398-19.249-14.438-36.814-29.09-50.542c-18.559-17.386-42.791-26.961-68.234-26.961c-55.065,0-99.864,44.799-99.864,99.864
			c0,20.803,6.392,40.76,18.225,57.501C18.167,206.993,0,249.957,0,294.247c0,54.991,27.117,106.452,76.354,144.903
			c48.144,37.597,111.942,58.302,179.646,58.302s131.502-20.705,179.646-58.302C484.883,400.698,512,349.237,512,294.247
			C512,249.957,493.833,206.993,460.546,171.913z M81.902,183.987l11.175-10.346l-10.514-11.017
			c-12.468-13.063-19.334-30.185-19.334-48.211c0-38.523,31.341-69.864,69.864-69.864c36.521,0,67.122,28.513,69.666,64.912
			l1.105,15.797l15.714-1.959c12.018-1.497,24.271-2.257,36.422-2.257c12.15,0,24.404,0.759,36.422,2.257l15.714,1.959l1.104-15.797
			c2.544-36.399,33.145-64.912,69.666-64.912c38.523,0,69.864,31.341,69.864,69.864c0,18.026-6.866,35.148-19.334,48.211
			l-10.514,11.017l11.175,10.346c26.714,24.734,43.836,54.673,49.665,86.149c-30.025,14.979-126.419,58.943-223.335,58.943
			c-98.145,0-196.146-33.834-226.016-45.085C33.269,247.503,51.292,212.328,81.902,183.987z M256,467.452
			c-114.763,0-209.817-65.898-224.133-150.913c40.69,14.526,131.252,42.54,224.561,42.54c65.064,0,128.832-18.378,170.871-33.795
			c22.479-8.244,41.151-16.449,54.436-22.719C476.051,394.222,376.978,467.452,256,467.452z"/>
	</g>
</g>
<g>
	<g>
		<path d="M378.906,62.71c-28.509,0-51.703,23.194-51.703,51.703c0,28.509,23.194,51.703,51.703,51.703
			c28.509,0,51.702-23.194,51.702-51.703C430.608,85.904,407.415,62.71,378.906,62.71z M378.906,136.116
			c-11.967,0-21.703-9.736-21.703-21.703c0-11.967,9.737-21.703,21.703-21.703c11.967,0,21.702,9.736,21.702,21.703
			C400.608,126.38,390.873,136.116,378.906,136.116z"/>
	</g>
</g>
<g>
	<g>
		
			<rect x="280.452" y="264.755" transform="matrix(0.5621 -0.827 0.827 0.5621 -106.0957 369.0143)" width="29.998" height="39.899"/>
	</g>
</g>
<g>
	<g>
		
			<rect x="196.591" y="269.735" transform="matrix(0.8271 -0.5621 0.5621 0.8271 -122.601 170.9519)" width="39.902" height="30.001"/>
	</g>
</g>
<g>
</g>
<g>
</g>
<g>
</g>
<g>
</g>
<g>
</g>
<g>
</g>
<g>
</g>
<g>
</g>
<g>
</g>
<g>
</g>
<g>
</g>
<g>
</g>
<g>
</g>
<g>
</g>
<g>
</g>
</svg>
