<svg id="Layer_1" height="512" viewBox="0 0 512 512" width="512" xmlns="http://www.w3.org/2000/svg" data-name="Layer 1"><path d="m472.14 195.374-113.26-15.4a18.415 18.415 0 0 0 -20.712 15.755l-.129.952a18.41 18.41 0 0 0 10.449 19.157 266.185 266.185 0 0 0 -.458 45.831c1.979 27.913 9.045 70.24 31.47 113.37 5.754 11.067 6.649 21.225 4.56 25.538-.643 1.329-1.316 1.559-1.9 1.67-3.149.6-11.509 2.2-18.847-23.938-.024-.084-.049-.167-.076-.25l-107.028-325.844c-19.877-68.815-148.802-42.908-159.1-40.715-4.293.255-26.663 1.594-30.6 2.074-6.139.75-10.359 5.375-10.82 5.9a5.97 5.97 0 0 0 -1.067 1.737c-1.635 2.646-5.432 6.981-11.519 11.563a50.459 50.459 0 0 1 -14.6 7.56 6 6 0 0 0 -3.92 3.756 10.567 10.567 0 0 0 5.936 13.395c1.871.82 5.766 2.517 65.79-7.851.166-.028.331-.064.494-.107a25.313 25.313 0 0 0 9.228-4.595c6.306-.74 28.361-2.967 50.925-1.018 41.72 3.607 53.344 18.265 55.749 29.927.01.049.021.1.032.146l87.287 375.413c.015.066.031.13.048.195a84.958 84.958 0 0 0 19 32.631c11.1 11.892 30 24.763 59.784 24.762a116.065 116.065 0 0 0 18.016-1.463c39.986-6.282 64.555-40.135 71.167-70.9 1.167-4.471 12.105-50-7.392-114.653-7.632-25.311-8.173-48.7-1.563-67.623a60.621 60.621 0 0 1 10.729-19.392 18.393 18.393 0 0 0 17.949-15.916l.13-.951a18.423 18.423 0 0 0 -15.752-20.716zm-378.169-157.518c-17.21 2.969-35.888 5.87-47.8 7.348 1.444-.906 2.837-1.859 4.147-2.846 6.707-5.046 12.056-10.6 14.851-15.406a6.187 6.187 0 0 1 2.794-1.469c3.02-.368 21.148-1.488 29.207-1.969l.205 12.886a16.557 16.557 0 0 1 -3.404 1.456zm355.19 285.579c19.043 63.145 7.347 107.878 7.229 108.313q-.075.274-.123.556c-5.815 26.7-26.979 55.983-61.254 61.367-66.172 10.4-82.409-43.815-83.327-47.1l-87.248-375.234c-9.538-45.8-90.8-41.262-115.125-38.846l-.179-11c12.361-2.044 34.68-5 57.848-4.414 20.013.514 36.616 3.538 49.348 8.992 15.266 6.539 24.548 16.209 28.377 29.565.021.073.043.146.067.219l107.026 325.826c2.4 8.559 9.3 32.8 28.083 32.8a24.06 24.06 0 0 0 4.539-.447 14.5 14.5 0 0 0 10.439-8.223c4.149-8.568 2.3-22.818-4.714-36.305-34.53-66.413-31.662-131.76-29.82-151.222l95.732 13.018c-9.059 13.728-21.552 43.538-6.898 92.135zm26.839-108.964-.129.951a6.4 6.4 0 0 1 -7.206 5.481l-113.255-15.403a6.4 6.4 0 0 1 -5.481-7.206l.13-.951a6.411 6.411 0 0 1 6.339-5.54 6.5 6.5 0 0 1 .866.058l113.259 15.4a6.409 6.409 0 0 1 5.477 7.21z"/><circle cx="235.886" cy="69.561" r="8.386"/><circle cx="252.659" cy="126.83" r="8.386"/><circle cx="272.118" cy="191.496" r="8.386"/><circle cx="294.552" cy="276.875" r="8.386"/></svg>