<svg id="Layer_1" height="512" viewBox="0 0 512 512" width="512" xmlns="http://www.w3.org/2000/svg" data-name="Layer 1"><path d="m355.08 211.52 112.3 15.26s-32.31 29.13-12.47 94.92 7.27 111.63 7.27 111.63v.03c-5.72 26.63-27.4 60.14-66.24 66.24-73.18 11.5-90.07-51.56-90.07-51.56l-87.29-375.41c-9.9-48-115.16-33.42-115.16-33.42l-.37-22.76c24.68-4.53 130.8-20.47 147.42 37.53l107.07 325.95c4.97 17.7 12.45 30.76 25.75 28.21 10.2-1.95 10.01-19.56 1.53-35.87-42.18-81.13-29.92-159.6-29.74-160.75z" fill="#f4b008"/><path d="m336.87 448.04-87.29-375.41c-7.289-35.342-66.272-36.757-96.875-35.046 28.858 1.812 60.65 9.71 65.875 35.046l87.29 375.41s16.726 62.4 88.959 51.719c-46.229-7.959-57.959-51.719-57.959-51.719z" fill="#ffd655"/><g fill="#d8a43d"><circle cx="235.886" cy="69.561" r="8.386"/><circle cx="252.659" cy="126.83" r="8.386"/><circle cx="272.118" cy="191.496" r="8.386"/><circle cx="294.552" cy="276.875" r="8.386"/></g><path d="m104.05 16.45.37 22.76-.3.17c-2.39 2.92-7.84 4.34-7.84 4.34s-58.25 10.06-62.36 8.26a4.7 4.7 0 0 1 -2.68-5.91 56.386 56.386 0 0 0 16.47-8.51c6.55-4.93 11.53-10.29 13.64-14.29l-.16.16s3-3.41 7.04-3.9 30.69-2.07 30.69-2.07 1.84-.4 5.13-1.01z" fill="#687990"/><path d="m471.33 202.32a12.4 12.4 0 0 1 10.62 13.96l-.13.95a12.4 12.4 0 0 1 -13.96 10.62l-.48-.07-112.3-15.26v-.01l-.48-.06a12.4 12.4 0 0 1 -10.62-13.96l.13-.95a12.411 12.411 0 0 1 13.96-10.62z" fill="#ffd655"/></svg>