<svg id="Layer_1" enable-background="new 0 0 511.706 511.706" height="512" viewBox="0 0 511.706 511.706" width="512" xmlns="http://www.w3.org/2000/svg"><path d="m459.926 382.531-.247-6.955c-.883-24.792-15.743-46.605-37.538-56.892l-.392-19.223c-.619-30.424-21.82-56.182-51.557-62.641l-135.167-29.354c-27.735-6.021-53.889 15.334-53.469 43.758l.144 9.794c-8.894-2.078-14.492-3.847-23.392-2.832l-68.852-204.976c-10.611-31.59-40.131-52.814-73.456-52.814-8.836 0-16 7.163-16 16s7.164 16 16 16c19.563 0 36.893 12.46 43.122 31.004l70.584 210.13c-6.926 8.139-10.67 18.505-10.437 29.447l1.17 54.853c-35.984 6.632-63.337 38.215-63.337 76.088 0 42.674 34.717 77.392 77.391 77.392 32.68 0 60.674-20.372 72.002-49.074h177.056c7.149 28.17 32.716 49.074 63.079 49.074 35.882 0 65.074-29.192 65.074-65.074.002-31.328-22.251-57.551-51.778-63.705zm-246.373-131.778c-.115-7.801 7.05-13.679 14.682-12.016l135.167 29.354c15.2 3.301 26.037 16.468 26.354 32.021l.195 9.559-176.135-41.15zm-79.059 228.557c-25.029 0-45.391-20.362-45.391-45.392 0-25.028 20.362-45.391 45.391-45.391s45.391 20.362 45.391 45.391c0 25.03-20.363 45.392-45.391 45.392zm249.058-49.074h-171.761c-1.641-34.853-26.446-63.728-59.327-71.579l-1.202-56.362c-.168-7.905 7.158-13.853 14.865-12.054l235.742 55.076c14.672 3.428 25.294 16.339 25.829 31.396l.256 7.192c-21.772 6.536-38.781 24.182-44.402 46.331zm63.079 49.074c-18.237 0-33.075-14.837-33.075-33.074s14.838-33.075 33.075-33.075 33.074 14.838 33.074 33.075-14.836 33.074-33.074 33.074z"/><circle cx="134.494" cy="433.919" r="19.058"/></svg>