<svg id="Layer_1" enable-background="new 0 0 511.706 511.706" height="512" viewBox="0 0 511.706 511.706" width="512" xmlns="http://www.w3.org/2000/svg"><path d="m421.75 299.461c-.619-30.424-21.82-56.182-51.557-62.641l-135.167-29.354c-27.735-6.021-53.889 15.334-53.469 43.758l1.887 128.057c.128 8.744 7.253 15.765 15.998 15.765h207.925c8.952 0 16.178-7.356 15.997-16.326z" fill="#fdaa6a"/><path d="m378.471 395.045c-6.148-29.558-21.718-91.974-48.761-123.627-22.944-26.856-91.894-40.754-139.322-47.334-5.827 7.729-8.978 17.201-8.831 27.14l1.745 118.441 120.846 25.38z" fill="#f0a567"/><path d="m459.679 375.575c-1.049-29.457-21.827-54.714-50.53-61.419l-235.742-55.076c-28.024-6.557-54.752 15.069-54.138 43.896l3.063 143.6c.186 8.702 7.293 15.659 15.997 15.659h307.851c9.052 0 16.312-7.514 15.99-16.568z" fill="#fc93a0"/><path d="m122.333 446.576c.186 8.702 7.293 15.659 15.997 15.659h307.85c9.052 0 16.312-7.514 15.99-16.568l-1.614-45.412c-61.285-19.333-138.026-34.225-204.851-19.095-61.265 13.871-105.248-.535-135.212-20.791z" fill="#e88793"/><path d="m446.631 381.16c-35.883 0-65.075 29.192-65.075 65.075 0 35.882 29.192 65.074 65.075 65.074 35.882 0 65.074-29.192 65.074-65.074.001-35.882-29.192-65.075-65.074-65.075z" fill="#5b5b5b"/><path d="m134.494 356.528c-42.674 0-77.391 34.717-77.391 77.391s34.717 77.392 77.391 77.392 77.391-34.718 77.391-77.392-34.718-77.391-77.391-77.391z" fill="#5b5b5b"/><g fill="#4c4c4c"><path d="m134.494 511.31c40.902 0 74.473-31.9 77.192-72.125-24.9-3.58-54.76-.735-84.197 19.407-24.229 16.578-44.691 17.692-61.146 11.961 13.083 24.244 38.723 40.757 68.151 40.757z"/><path d="m446.631 511.31c32.998 0 60.32-24.695 64.501-56.571-14.453-3.744-27.625-2.614-36.621 7.497-22.934 25.775-67.135-1.483-92.726-21.23-3.057 38.21 27.235 70.304 64.846 70.304z"/><circle cx="134.494" cy="433.919" r="19.058"/></g><path d="m153.549 310.273c-6.686 0-12.919-4.222-15.165-10.909l-79.262-235.964c-6.229-18.544-23.559-31.004-43.122-31.004-8.836 0-16-7.163-16-16s7.164-16 16-16c33.325 0 62.845 21.225 73.456 52.814l79.262 235.964c3.479 10.355-4.236 21.099-15.169 21.099z" fill="#5b5b5b"/></svg>