<svg id="Capa_1" enable-background="new 0 0 512 512" height="512" viewBox="0 0 512 512" width="512" xmlns="http://www.w3.org/2000/svg"><g><path d="m215 402h-80c-8.284 0-15 6.716-15 15s6.716 15 15 15h80c8.284 0 15-6.716 15-15s-6.716-15-15-15z"/><path d="m497 482h-33l-38.448-72.091c-.018-.033-.035-.067-.053-.1l-63.952-119.909c-.015-.028-.03-.056-.045-.084l-53.266-99.874c-2.607-4.888-7.696-7.942-13.236-7.942s-10.628 3.054-13.235 7.941l-36.447 68.34-56.61-127.373c-2.408-5.417-7.78-8.908-13.708-8.908s-11.3 3.491-13.707 8.908l-53.43 120.217c-.008.018-.016.035-.024.053l-44.416 99.936c-.01.023-.021.045-.03.068l-62.1 139.725c-2.062 4.64-1.637 10.008 1.129 14.266 2.768 4.259 7.5 6.827 12.578 6.827h482c8.284 0 15-6.716 15-15s-6.716-15-15-15zm-458.918 0 48.889-110h38.029c8.284 0 15-6.716 15-15s-6.716-15-15-15h-24.696l31.111-70h33.585c8.284 0 15-6.716 15-15s-6.716-15-15-15h-20.252l30.252-68.066 61.363 138.066h-21.363c-8.284 0-15 6.716-15 15s6.716 15 15 15h34.696l62.222 140zm235.193-160.814c-.011-.026-.023-.051-.034-.077l-12.469-28.056 34.228-64.178 28.333 53.125h-18.333c-8.284 0-15 6.716-15 15s6.716 15 15 15h34.333l48 90h-12.333c-8.284 0-15 6.716-15 15s6.716 15 15 15h28.333l26.667 50h-85.252z"/><path d="m359.89 170.909c16.567 12.489 36.315 19.091 57.11 19.091 52.383 0 95-42.617 95-95s-42.617-95-95-95c-7.267 0-14.746.911-22.229 2.709-6.638 1.594-11.362 7.47-11.494 14.295-.132 6.824 4.36 12.878 10.932 14.729 19.307 5.436 32.791 23.228 32.791 43.267 0 24.813-20.187 45-45 45-11.646 0-22.709-4.471-31.152-12.589-4.919-4.729-12.411-5.542-18.232-1.978-5.819 3.565-8.499 10.609-6.52 17.141 5.789 19.104 17.791 36.27 33.794 48.335zm97.11-95.909c0-13.607-3.728-26.594-10.32-37.819 20.956 10.8 35.32 32.664 35.32 57.819 0 35.841-29.159 65-65 65-12.718 0-24.687-3.604-34.812-10 41.269-.102 74.812-33.708 74.812-75z"/></g></svg>