<svg id="Capa_1" enable-background="new 0 0 512 512" height="512" viewBox="0 0 512 512" width="512" xmlns="http://www.w3.org/2000/svg"><g><path d="m437.333 432-27.333-15 11.333-15-48-90-23.333-15 7.333-15-49.098-92.059c-2.607-4.887-7.695-7.941-13.235-7.941s-10.628 3.054-13.235 7.941l-160 300h346.471z" fill="#ffe278"/><path d="m468.235 489.941-30.902-57.941-27.333-15 11.333-15-48-90-23.333-15 7.333-15-49.098-92.059c-2.607-4.887-7.695-7.941-13.235-7.941v307.941z" fill="#ffb454"/><path d="m300 297c0 8.284 6.716 15 15 15h58.333l-16-30h-42.333c-8.284 0-15 6.716-15 15z" fill="#ff8e00"/><path d="m375 402c-8.284 0-15 6.716-15 15s6.716 15 15 15h62.333l-16-30z" fill="#ff8e00"/><path d="m282.526 342-22.526-15 9.192-15-80.485-181.092c-2.407-5.417-7.779-8.908-13.707-8.908s-11.3 3.491-13.707 8.908l-49.374 111.092 8.081 15-21.414 15-31.111 70 12.525 15-25.859 15-52.848 118.908h347.414z" fill="#ffb454"/><path d="m348.707 490.908-66.181-148.908-22.526-15 9.192-15-80.485-181.092c-2.407-5.417-7.779-8.908-13.707-8.908v368.908z" fill="#ff8e00"/><path d="m200 327c0 8.284 6.716 15 15 15h67.526l-13.333-30h-54.193c-8.284 0-15 6.716-15 15z" fill="#ff6326"/><g fill="#ff8e00"><path d="m170 257c0-8.284-6.716-15-15-15h-43.081l-13.333 30h56.414c8.284 0 15-6.716 15-15z"/><path d="m140 357c0-8.284-6.716-15-15-15h-57.526l-13.333 30h70.859c8.284 0 15-6.716 15-15z"/><path d="m215 432h-80c-8.284 0-15-6.716-15-15s6.716-15 15-15h80c8.284 0 15 6.716 15 15s-6.716 15-15 15z"/></g><path d="m215 402h-40v30h40c8.284 0 15-6.716 15-15s-6.716-15-15-15z" fill="#ff6326"/><path d="m497 512h-482c-8.284 0-15-6.716-15-15s6.716-15 15-15h482c8.284 0 15 6.716 15 15s-6.716 15-15 15z" fill="#c6865c"/><path d="m497 482h-241v30h241c8.284 0 15-6.716 15-15s-6.716-15-15-15z" fill="#8e572e"/><path d="m417 190c-20.796 0-40.544-6.602-57.109-19.091-16.004-12.065-28.006-29.23-33.795-48.335-1.979-6.531.7-13.575 6.52-17.14 5.818-3.566 13.311-2.754 18.231 1.977 8.444 8.118 19.509 12.589 31.153 12.589 24.813 0 45-20.187 45-45 0-20.039-13.484-37.831-32.791-43.268-6.571-1.85-11.063-7.903-10.932-14.729s4.855-12.7 11.493-14.295c7.483-1.797 14.963-2.708 22.23-2.708 52.383 0 95 42.617 95 95s-42.617 95-95 95z" fill="#ffe278"/><g><path d="m417 0v46.82c6.297 7.81 10 17.685 10 28.18 0 10.689-3.752 20.513-10 28.241v86.759c52.383 0 95-42.617 95-95s-42.617-95-95-95z" fill="#ffb454"/></g></g></svg>