<svg id="Layer_1" enable-background="new 0 0 512.017 512.017" height="512" viewBox="0 0 512.017 512.017" width="512" xmlns="http://www.w3.org/2000/svg"><path d="m261.638 27.506c-48.739 0-93.43 28.594-113.855 72.847l-49.91 108.131c-14.867 32.21-47.397 53.023-82.873 53.023h-15v223.003h512.017v-223.003h-30.177c-49.532 0-89.83-40.298-89.83-89.83v-3.409c6.872-2.65 12.076-7.255 15.655-13.389 5.535 9.881 15.075 15.96 29.349 15.96 24.814 0 45.002-20.188 45.002-45.002v-3.325c0-52.386-42.619-95.005-95.005-95.005h-125.373zm5.364 30c35.844 0 65.005 29.161 65.005 65.005v3.325c0 19.556 12.542 36.229 30.002 42.422v3.419c0 66.075 53.755 119.83 119.83 119.83h.177v39.713l-8.788-4.099c-23.176-10.81-49.761-10.809-72.937 0-15.117 7.051-32.459 7.051-47.576 0-23.176-10.81-49.761-10.809-72.937 0-15.117 7.051-32.459 7.051-47.576 0-23.176-10.81-49.761-10.809-72.937 0-15.117 7.051-32.458 7.051-47.576 0-23.176-10.81-49.76-10.81-72.937 0l-8.752 4.082v-40.634c41.135-5.164 77.475-31.303 95.111-69.513l49.909-108.131c15.539-33.666 49.539-55.419 86.617-55.419h5.365m185.013 65.005v3.325c0 8.272-6.73 15.002-15.002 15.002s-15.002-6.73-15.002-15.002v-3.325c0-24.751-9.516-47.323-25.079-64.249 31.151 4.792 55.083 31.779 55.083 64.249zm-115.086-64.249c31.15 4.792 55.082 31.779 55.082 64.249v3.325c0 8.272-6.729 15.002-15.001 15.002s-15.002-6.73-15.002-15.002v-3.325c-.001-24.751-9.516-47.323-25.079-64.249zm-285.496 296.048c15.117-7.05 32.458-7.051 47.576 0 23.177 10.81 49.761 10.81 72.938 0 15.117-7.05 32.458-7.051 47.576 0 23.177 10.81 49.761 10.81 72.938 0 15.117-7.05 32.458-7.051 47.576 0 23.177 10.81 49.761 10.81 72.938 0 15.117-7.051 32.458-7.051 47.576 0l21.469 10.013v31.901l-8.788-4.099c-23.176-10.81-49.761-10.81-72.937 0-15.117 7.051-32.459 7.051-47.576 0-23.176-10.81-49.761-10.809-72.937 0-15.117 7.051-32.459 7.051-47.576 0-23.176-10.81-49.761-10.809-72.937 0-15.117 7.051-32.458 7.051-47.576 0-23.176-10.81-49.76-10.81-72.937 0l-8.756 4.082v-31.901zm-21.433 100.2v-25.2l21.433-9.996c15.117-7.05 32.458-7.051 47.576 0 23.177 10.81 49.762 10.809 72.938 0 15.117-7.05 32.458-7.051 47.576 0 23.177 10.81 49.762 10.809 72.938 0 15.117-7.05 32.458-7.051 47.576 0 23.177 10.81 49.762 10.809 72.938 0 15.117-7.051 32.458-7.051 47.576 0l21.469 10.013v25.183z"/></svg>