<svg id="Layer_1" enable-background="new 0 0 512.017 512.017" height="512" viewBox="0 0 512.017 512.017" width="512" xmlns="http://www.w3.org/2000/svg"><g><path d="m481.839 261.507c-49.532 0-89.83-40.298-89.83-89.83v-21.07l-71.318-123.101h-59.053c-48.739 0-93.43 28.594-113.855 72.847l-49.91 108.131c-14.867 32.21-47.397 53.023-82.873 53.023h-15v116.609l51.147-23.855c7.517-3.506 15.534-5.284 23.829-5.284s16.312 1.777 23.829 5.284c11.355 5.296 23.979 8.095 36.509 8.095s25.154-2.799 36.509-8.095c7.517-3.506 15.534-5.284 23.829-5.284 8.294 0 16.312 1.777 23.829 5.284 11.355 5.296 23.979 8.095 36.509 8.095 12.529 0 25.154-2.799 36.51-8.095 7.517-3.506 15.534-5.284 23.829-5.284s16.312 1.777 23.829 5.284c11.355 5.296 23.98 8.095 36.509 8.095 12.53 0 25.154-2.799 36.509-8.095 7.517-3.506 15.534-5.284 23.829-5.284s16.312 1.777 23.829 5.284l51.183 23.872v-116.626z" fill="#30caf3"/><path d="m481.839 261.507c-49.532 0-89.83-40.298-89.83-89.83v-21.07l-71.318-123.101h-59.053c-1.884 0-3.759.058-5.63.142v334.708c12.523-.003 25.142-2.802 36.492-8.095 7.517-3.506 15.534-5.284 23.829-5.284s16.312 1.777 23.829 5.284c11.355 5.296 23.98 8.095 36.509 8.095 12.53 0 25.154-2.799 36.509-8.095 7.517-3.506 15.534-5.284 23.829-5.284s16.312 1.777 23.829 5.284l51.183 23.872v-116.626z" fill="#26abff"/><path d="m321.759 27.506h70.733c52.086 0 94.311 42.224 94.311 94.311v3.92c0 19.532-15.834 35.367-35.367 35.367-19.532 0-35.367-15.834-35.367-35.367v-3.92c.001-52.086-42.224-94.311-94.31-94.311z" fill="#7cf0ee"/><path d="m321.759 27.506h70.733c52.086 0 94.311 42.224 94.311 94.311v3.92c0 19.532-15.834 35.367-35.367 35.367-19.532 0-35.367-15.834-35.367-35.367v-3.92c.001-52.086-42.224-94.311-94.31-94.311z" fill="#3ae8e6"/><path d="m261.638 27.506h70.733c52.086 0 94.311 42.224 94.311 94.311v3.92c0 19.532-15.834 35.367-35.367 35.367-19.532 0-35.367-15.834-35.367-35.367v-3.92c.001-52.086-42.223-94.311-94.31-94.311z" fill="#bdf7f7"/><path d="m261.638 27.506h70.733c52.086 0 94.311 42.224 94.311 94.311v3.92c0 19.532-15.834 35.367-35.367 35.367-19.532 0-35.367-15.834-35.367-35.367v-3.92c.001-52.086-42.223-94.311-94.31-94.311z" fill="#7cf0ee"/><path d="m473.514 327.073c-11.355-5.296-23.98-8.095-36.51-8.095-12.529 0-25.154 2.799-36.509 8.095-7.517 3.506-15.534 5.284-23.829 5.284s-16.312-1.777-23.829-5.284c-11.355-5.296-23.98-8.095-36.509-8.095s-25.154 2.799-36.51 8.095c-7.517 3.506-15.534 5.284-23.829 5.284s-16.312-1.777-23.829-5.284c-11.355-5.296-23.98-8.095-36.509-8.095-12.53 0-25.155 2.799-36.51 8.095-7.517 3.506-15.534 5.284-23.829 5.284s-16.312-1.777-23.829-5.284c-11.355-5.296-23.98-8.095-36.51-8.095-12.529 0-25.154 2.799-36.509 8.095l-38.464 17.941v98.194l51.146-23.855c7.518-3.506 15.535-5.283 23.829-5.283 8.295 0 16.312 1.777 23.829 5.283 11.355 5.296 23.98 8.096 36.51 8.096s25.154-2.799 36.509-8.096c7.518-3.506 15.535-5.283 23.83-5.283 8.294 0 16.312 1.777 23.828 5.283 11.355 5.297 23.98 8.096 36.51 8.096 12.529 0 25.154-2.799 36.51-8.096 7.517-3.506 15.534-5.283 23.829-5.283 8.294 0 16.312 1.777 23.829 5.283 11.355 5.296 23.98 8.096 36.509 8.096 12.53 0 25.154-2.799 36.509-8.096 7.518-3.506 15.535-5.283 23.829-5.283 8.295 0 16.312 1.777 23.829 5.283l51.183 23.872v-98.194z" fill="#7cf0ee"/><path d="m473.514 327.073c-11.355-5.296-23.98-8.095-36.51-8.095-12.529 0-25.154 2.799-36.509 8.095-7.517 3.506-15.534 5.284-23.829 5.284s-16.312-1.777-23.829-5.284c-11.355-5.296-23.98-8.095-36.509-8.095s-25.154 2.799-36.51 8.095c-7.512 3.504-15.523 5.281-23.811 5.283v95.093c12.523-.003 25.142-2.802 36.492-8.095 7.517-3.506 15.534-5.283 23.829-5.283 8.294 0 16.312 1.777 23.829 5.283 11.355 5.296 23.98 8.096 36.509 8.096 12.53 0 25.154-2.799 36.509-8.096 7.518-3.506 15.535-5.283 23.829-5.283 8.295 0 16.312 1.777 23.829 5.283l51.183 23.872v-98.194z" fill="#3ae8e6"/><path d="m473.514 392.165c-11.355-5.296-23.979-8.095-36.509-8.095-12.529 0-25.154 2.799-36.51 8.095-7.517 3.506-15.534 5.284-23.828 5.284s-16.311-1.778-23.829-5.284c-11.355-5.296-23.979-8.095-36.509-8.095s-25.154 2.799-36.51 8.095c-7.517 3.506-15.534 5.284-23.828 5.284s-16.312-1.778-23.829-5.284c-11.355-5.296-23.979-8.095-36.509-8.095s-25.154 2.799-36.51 8.095c-7.517 3.506-15.534 5.284-23.828 5.284s-16.312-1.778-23.829-5.284c-11.355-5.296-23.979-8.095-36.509-8.095-12.529 0-25.154 2.799-36.509 8.095l-38.468 17.941v74.405h512.017v-74.388z" fill="#bdf7f7"/><path d="m512.017 410.123-38.503-17.958c-11.355-5.296-23.979-8.095-36.509-8.095-12.529 0-25.154 2.799-36.51 8.095-7.517 3.506-15.534 5.284-23.828 5.284s-16.311-1.778-23.829-5.284c-11.355-5.296-23.979-8.095-36.509-8.095s-25.154 2.799-36.51 8.095c-7.511 3.504-15.522 5.281-23.81 5.284v87.063h256.008z" fill="#7cf0ee"/></g></svg>