<svg id="Layer_1" enable-background="new 0 0 512.001 512.001" height="512" viewBox="0 0 512.001 512.001" width="512" xmlns="http://www.w3.org/2000/svg"><g><g fill="#9af9ff"><path d="m215.986 424.001c-3.05 0-6.133-.87-8.86-2.688-7.353-4.902-9.34-14.836-4.438-22.188l16-24c4.902-7.353 14.837-9.339 22.188-4.438 7.353 4.902 9.34 14.836 4.438 22.188l-16 24c-3.084 4.625-8.158 7.126-13.328 7.126z"/><path d="m79.986 424.001c-3.05 0-6.133-.87-8.86-2.688-7.353-4.902-9.34-14.836-4.438-22.188l16-24c4.901-7.353 14.837-9.339 22.188-4.438 7.353 4.902 9.34 14.836 4.438 22.188l-16 24c-3.084 4.625-8.158 7.126-13.328 7.126z"/><path d="m367.986 424.001c-3.05 0-6.133-.87-8.86-2.688-7.353-4.902-9.34-14.836-4.438-22.188l16-24c4.902-7.353 14.836-9.339 22.188-4.438 7.353 4.902 9.34 14.836 4.438 22.188l-16 24c-3.084 4.625-8.158 7.126-13.328 7.126z"/><path d="m215.986 512.001c-3.05 0-6.133-.87-8.86-2.688-7.353-4.902-9.34-14.836-4.438-22.188l16-24c4.902-7.353 14.837-9.339 22.188-4.438 7.353 4.902 9.34 14.836 4.438 22.188l-16 24c-3.084 4.625-8.158 7.126-13.328 7.126z"/><path d="m287.986 456.001c-3.05 0-6.133-.87-8.86-2.688-7.353-4.902-9.34-14.836-4.438-22.188l16-24c4.901-7.353 14.837-9.338 22.188-4.438 7.353 4.902 9.34 14.836 4.438 22.188l-16 24c-3.084 4.625-8.158 7.126-13.328 7.126z"/><path d="m359.986 512.001c-3.05 0-6.133-.87-8.86-2.688-7.353-4.902-9.34-14.836-4.438-22.188l16-24c4.901-7.353 14.836-9.339 22.188-4.438 7.353 4.902 9.34 14.836 4.438 22.188l-16 24c-3.084 4.625-8.158 7.126-13.328 7.126z"/><path d="m143.986 456.001c-3.05 0-6.133-.87-8.86-2.688-7.353-4.902-9.34-14.836-4.438-22.188l16-24c4.901-7.353 14.836-9.338 22.188-4.438 7.353 4.902 9.34 14.836 4.438 22.188l-16 24c-3.084 4.625-8.158 7.126-13.328 7.126z"/><path d="m71.986 512.001c-3.05 0-6.133-.87-8.86-2.688-7.353-4.902-9.34-14.836-4.438-22.188l16-24c4.901-7.353 14.837-9.339 22.188-4.438 7.353 4.902 9.34 14.836 4.438 22.188l-16 24c-3.084 4.625-8.158 7.126-13.328 7.126z"/></g><path d="m245.311 392.88-16 24c-3.08 4.62-8.15 7.12-13.32 7.12-3.05 0-6.14-.87-8.87-2.69-2.15-1.43-3.83-3.29-5.01-5.39 2.47 1.4 5.18 2.08 7.87 2.08 5.17 0 10.25-2.5 13.33-7.13l16-24c3.47-5.2 3.49-11.7.58-16.79.34.19.67.39.99.61 7.35 4.9 9.33 14.83 4.43 22.19z" fill="#86effd"/><path d="m109.311 392.88-16 24c-3.08 4.62-8.15 7.12-13.32 7.12-3.05 0-6.14-.87-8.87-2.69-2.15-1.43-3.83-3.29-5.01-5.39 2.47 1.4 5.18 2.08 7.87 2.08 5.17 0 10.25-2.5 13.33-7.13l16-24c3.47-5.2 3.49-11.7.58-16.79.34.19.67.39.99.61 7.35 4.9 9.33 14.83 4.43 22.19z" fill="#86effd"/><path d="m397.311 392.88-16 24c-3.08 4.62-8.15 7.12-13.32 7.12-3.05 0-6.14-.87-8.87-2.69-2.15-1.43-3.83-3.29-5.01-5.39 2.47 1.4 5.18 2.08 7.87 2.08 5.17 0 10.25-2.5 13.33-7.13l16-24c3.47-5.2 3.49-11.7.58-16.79.34.19.67.39.99.61 7.35 4.9 9.33 14.83 4.43 22.19z" fill="#86effd"/><path d="m245.311 480.88-16 24c-3.08 4.62-8.15 7.12-13.32 7.12-3.05 0-6.14-.87-8.87-2.69-2.15-1.43-3.83-3.29-5.01-5.39 2.47 1.4 5.18 2.08 7.87 2.08 5.17 0 10.25-2.5 13.33-7.13l16-24c3.47-5.2 3.49-11.7.58-16.79.34.19.67.39.99.61 7.35 4.9 9.33 14.83 4.43 22.19z" fill="#86effd"/><path d="m317.311 424.88-16 24c-3.08 4.62-8.15 7.12-13.32 7.12-3.05 0-6.14-.87-8.87-2.69-2.15-1.43-3.83-3.29-5.01-5.39 2.47 1.4 5.18 2.08 7.87 2.08 5.17 0 10.25-2.5 13.33-7.13l16-24c3.47-5.2 3.49-11.7.58-16.79.34.19.67.39.99.61 7.35 4.9 9.33 14.83 4.43 22.19z" fill="#86effd"/><path d="m389.311 480.88-16 24c-3.08 4.62-8.15 7.12-13.32 7.12-3.05 0-6.14-.87-8.87-2.69-2.15-1.43-3.83-3.29-5.01-5.39 2.47 1.4 5.18 2.08 7.87 2.08 5.17 0 10.25-2.5 13.33-7.13l16-24c3.47-5.2 3.49-11.7.58-16.79.34.19.67.39.99.61 7.35 4.9 9.33 14.83 4.43 22.19z" fill="#86effd"/><path d="m173.311 424.88-16 24c-3.08 4.62-8.15 7.12-13.32 7.12-3.05 0-6.14-.87-8.87-2.69-2.15-1.43-3.83-3.29-5.01-5.39 2.47 1.4 5.18 2.08 7.87 2.08 5.17 0 10.25-2.5 13.33-7.13l16-24c3.47-5.2 3.49-11.7.58-16.79.34.19.67.39.99.61 7.35 4.9 9.33 14.83 4.43 22.19z" fill="#86effd"/><path d="m101.311 480.88-16 24c-3.08 4.62-8.15 7.12-13.32 7.12-3.05 0-6.14-.87-8.87-2.69-2.15-1.43-3.83-3.29-5.01-5.39 2.47 1.4 5.18 2.08 7.87 2.08 5.17 0 10.25-2.5 13.33-7.13l16-24c3.47-5.2 3.49-11.7.58-16.79.34.19.67.39.99.61 7.35 4.9 9.33 14.83 4.43 22.19z" fill="#86effd"/><path d="m512.001 224c0 61.76-50.24 112-112 112h-288c-61.76 0-112-50.24-112-112s50.24-112 112-112c5.67 0 11.3.42 16.84 1.26 7.34-63.67 61.56-113.26 127.16-113.26s119.82 49.59 127.16 113.26c5.54-.84 11.17-1.26 16.84-1.26 61.76 0 112 50.24 112 112z" fill="#9af9ff"/><path d="m512.001 224c0 61.86-50.14 112-112 112-6.83 0-13.51-.61-20-1.78 52.31-9.43 92-55.19 92-110.22s-39.69-100.79-92-110.22c6.49-1.17 13.17-1.78 20-1.78 61.86 0 112 50.14 112 112z" fill="#86effd"/></g></svg>