<svg id="Capa_1" enable-background="new 0 0 512 512" height="512" viewBox="0 0 512 512" width="512" xmlns="http://www.w3.org/2000/svg"><g><path d="m506.8 204.395c-3.37-16.441-8.39-32.611-14.92-48.062-6.42-15.171-14.36-29.802-23.6-43.483-9.16-13.56-19.681-26.301-31.261-37.891-11.59-11.581-24.33-22.101-37.89-31.262-13.68-9.24-28.311-17.181-43.48-23.601-15.449-6.53-31.619-11.55-48.06-14.921-33.73-6.9-69.45-6.9-103.18 0-16.44 3.37-32.61 8.391-48.061 14.921-15.17 6.421-29.8 14.361-43.479 23.601-13.559 9.161-26.309 19.681-37.89 31.262-11.58 11.59-22.1 24.331-31.26 37.891-9.24 13.681-17.18 28.311-23.6 43.483-6.54 15.45-11.551 31.621-14.92 48.062-3.449 16.861-5.199 34.222-5.199 51.593 0 17.37 1.75 34.732 5.2 51.592 3.369 16.441 8.38 32.611 14.92 48.062 6.42 15.171 14.359 29.801 23.6 43.482 9.16 13.561 19.68 26.301 31.26 37.892 11.58 11.58 24.33 22.101 37.891 31.261 13.68 9.241 28.31 17.181 43.479 23.601 15.45 6.54 31.62 11.55 48.061 14.921 16.859 3.45 34.22 5.2 51.59 5.2h.02c26.16 0 51.971-3.94 76.721-11.701 23.96-7.52 46.649-18.531 67.43-32.732 2.21-1.51 3.7-3.78 4.189-6.41.5-2.62-.06-5.28-1.569-7.49-1.86-2.73-4.95-4.36-8.26-4.36-2.021 0-3.961.6-5.631 1.74-39.241 26.792-85.201 40.953-132.901 40.953-63.021 0-122.29-24.551-166.88-69.123-44.57-44.592-69.12-103.865-69.12-166.888s24.55-122.296 69.12-166.889c44.59-44.572 103.859-69.123 166.88-69.123 63.02 0 122.29 24.551 166.88 69.123 44.57 44.593 69.12 103.866 69.12 166.889 0 48.442-14.57 94.985-42.12 134.606-1.53 2.191-2.11 4.85-1.63 7.481.47 2.62 1.939 4.91 4.13 6.44 1.68 1.17 3.66 1.79 5.7 1.79 3.279 0 6.35-1.6 8.22-4.29 14.59-20.981 25.91-43.923 33.65-68.204 8-25.081 12.05-51.272 12.05-77.824 0-17.37-1.75-34.731-5.2-51.592z"/><path d="m256 380.994c68.925 0 125-56.077 125-125.006s-56.075-125.006-125-125.006-125 56.077-125 125.006 56.075 125.006 125 125.006zm0-230.011c57.897 0 105 47.105 105 105.005s-47.103 105.005-105 105.005-105-47.105-105-105.005 47.103-105.005 105-105.005z"/><circle cx="256" cy="255.988" r="10"/><path d="m220.003 200.179c1.625 0 3.273-.397 4.799-1.233 9.499-5.208 20.287-7.961 31.198-7.961 10.117 0 19.806 2.257 28.797 6.708 4.948 2.451 10.948.423 13.398-4.525 2.45-4.95.425-10.949-4.525-13.4-11.773-5.829-24.447-8.785-37.67-8.785-14.263 0-28.376 3.605-40.813 10.424-4.843 2.655-6.616 8.734-3.961 13.577 1.819 3.318 5.244 5.195 8.777 5.195z"/><path d="m290.855 323.165c1.946 2.773 5.045 4.256 8.193 4.256 1.984 0 3.989-.589 5.736-1.816 22.678-15.919 36.216-41.944 36.216-69.617 0-5.523-4.478-10-10-10s-10 4.477-10 10c0 21.163-10.357 41.068-27.705 53.246-4.521 3.173-5.612 9.41-2.44 13.931z"/><path d="m212.647 329.118c1.602.951 3.36 1.404 5.097 1.404 3.413 0 6.738-1.748 8.607-4.895 2.82-4.749 1.258-10.885-3.491-13.705-18.249-10.84-30.09-29.898-31.676-50.981-.414-5.508-5.229-9.645-10.722-9.222-5.507.414-9.636 5.215-9.222 10.722 2.075 27.582 17.554 52.508 41.407 66.677z"/><path d="m356.287 375.502c-13.99 11.729-29.781 20.846-46.934 27.098-5.188 1.892-7.862 7.632-5.971 12.821 1.479 4.059 5.313 6.578 9.396 6.578 1.137 0 2.293-.196 3.424-.607 19.345-7.052 37.154-17.335 52.932-30.562 4.232-3.549 4.788-9.856 1.239-14.089-3.547-4.232-9.855-4.786-14.086-1.239z"/><path d="m195.797 90.583c-19.345 7.052-37.154 17.335-52.932 30.562-4.232 3.549-4.788 9.856-1.239 14.089 1.978 2.359 4.812 3.576 7.668 3.576 2.267 0 4.547-.767 6.419-2.337 13.99-11.729 29.781-20.846 46.934-27.098 5.188-1.892 7.862-7.632 5.971-12.821-1.892-5.189-7.628-7.863-12.821-5.971z"/><path d="m394.623 394.607c-24.32 24.272-54.714 41.82-87.893 50.747-5.333 1.435-8.494 6.922-7.059 12.255 1.2 4.464 5.238 7.405 9.65 7.405.859 0 1.734-.112 2.604-.346 36.552-9.834 70.033-29.165 96.824-55.904 3.909-3.902 3.916-10.233.015-14.143s-10.234-3.915-14.141-.014z"/><path d="m212.328 54.366c-1.434-5.333-6.922-8.494-12.254-7.059-36.552 9.834-70.033 29.165-96.824 55.904-3.909 3.902-3.916 10.233-.015 14.143 1.953 1.957 4.516 2.936 7.078 2.936 2.556 0 5.112-.974 7.063-2.922 24.32-24.272 54.714-41.82 87.893-50.747 5.334-1.435 8.495-6.921 7.059-12.255z"/><circle cx="429.189" cy="430.707" r="10"/></g></svg>