<svg height="512" viewBox="0 0 58 58" width="512" xmlns="http://www.w3.org/2000/svg"><g id="Page-1" fill="none" fill-rule="evenodd"><g id="037---Train" fill-rule="nonzero"><path id="Shape" d="m18.5 38-6.75 18-.51 1.35c-.143745.389694-.5146413.6489226-.93.65h-8.51c-.36209254-.0028888-.69433503-.2012967-.8686008-.5187094-.17426577-.3174126-.16332588-.7042344.0286008-1.0112906l12.45-19.92h.01z" fill="#bdc3c7"/><path id="Shape" d="m44.58 36.55h.01l12.45 19.92c.1919267.3070562.2028666.693878.0286008 1.0112906-.1742658.3174127-.5065083.5158206-.8686008.5187094h-8.51c-.4153587-.0010774-.786255-.260306-.93-.65l-.51-1.35-6.75-18z" fill="#bdc3c7"/><path id="Shape" d="m42.5 46h-27l1.5-4h24z" fill="#a56a43"/><path id="Shape" d="m46.25 56h-34.5l1.5-4h31.5z" fill="#a56a43"/><path id="Shape" d="m33 0h-8c-8.2831279.00275966-14.9972403 6.71687211-15 15v15c-.00250104 2.6095156 1.2708728 5.0554389 3.41 6.55h.01c1.3411058.9430695 2.9405048 1.4494294 4.58 1.45h22c1.6394952-.0005706 3.2388942-.5069305 4.58-1.45h.01c2.1391272-1.4945611 3.412501-3.9404844 3.41-6.55v-15c-.0027597-8.28312789-6.7168721-14.99724034-15-15z" fill="#e64c3c"/><path id="Shape" d="m22 38h-4c-1.6394952-.0005706-3.2388942-.5069305-4.58-1.45h-.01c-2.1391272-1.4945611-3.41250104-3.9404844-3.41-6.55l-.00000368-10c12.00000368 4.74 12.00000368 13.64 12.00000368 18z" fill="#c03a2b"/><path id="Shape" d="m48.0000037 20-.0000037 10c.002501 2.6095156-1.2708728 5.0554389-3.41 6.55h-.01c-1.3411058.9430695-2.9405048 1.4494294-4.58 1.45h-4c0-4.36 0-13.26 12.0000037-18z" fill="#c03a2b"/><path id="Shape" d="m16 32h-2c-.5522847 0-1-.4477153-1-1s.4477153-1 1-1h2c.5522847 0 1 .4477153 1 1s-.4477153 1-1 1z" fill="#f9eab0"/><path id="Shape" d="m44 32h-2c-.5522847 0-1-.4477153-1-1s.4477153-1 1-1h2c.5522847 0 1 .4477153 1 1s-.4477153 1-1 1z" fill="#f9eab0"/><path id="Shape" d="m43 15v1.21c-.0047438.3622763-.2031697.6942582-.52.87-1.4057881.7685054-2.7351318 1.6692446-3.97 2.69-.1763268.1485255-.399455.229985-.63.23h-17.76c-.230545-.000015-.4536732-.0814745-.63-.23-1.2348682-1.0207554-2.5642119-1.9214946-3.97-2.69-.3168303-.1757418-.5152562-.5077237-.52-.87v-1.21c.0159279-5.51623648 4.4837635-9.9840721 10-10h8c5.5162365.0159279 9.9840721 4.48376352 10 10z" fill="#2980ba"/><g fill="#bdc3c7"><path id="Shape" d="m31 26h-4c-.5522847 0-1-.4477153-1-1s.4477153-1 1-1h4c.5522847 0 1 .4477153 1 1s-.4477153 1-1 1z"/><path id="Shape" d="m31 30h-4c-.5522847 0-1-.4477153-1-1s.4477153-1 1-1h4c.5522847 0 1 .4477153 1 1s-.4477153 1-1 1z"/><path id="Shape" d="m31 34h-4c-.5522847 0-1-.4477153-1-1s.4477153-1 1-1h4c.5522847 0 1 .4477153 1 1s-.4477153 1-1 1z"/></g><path id="Shape" d="m36.21 5.53c-2.4358925.31395773-4.8456257.80526254-7.21 1.47-5.77 1.65-11.54 4.66-13.38 10.14-.03-.02-.07-.04-.1-.06-.3168303-.1757418-.5152562-.5077237-.52-.87v-1.21c.0159279-5.51623648 4.4837635-9.9840721 10-10h8c1.0916854.00113263 2.1758918.18014491 3.21.53z" fill="#3b97d3"/><path id="Rectangle-path" d="m28 5h2v15h-2z" fill="#c03a2b"/></g></g></svg>