<svg id="Capa_1" enable-background="new 0 0 512 512" height="512" viewBox="0 0 512 512" width="512" xmlns="http://www.w3.org/2000/svg"><g><path d="m496.217 381.033h-24.851c-22.405 0-40.633 18.228-40.633 40.633v30.027l-14.37 14.37c-2.929 2.929-2.929 7.678 0 10.606 1.465 1.464 3.385 2.197 5.304 2.197s3.839-.732 5.304-2.197l14.37-14.37h30.026c22.405 0 40.634-18.228 40.634-40.633v-24.85c-.001-8.702-7.081-15.783-15.784-15.783zm.783 40.634c0 14.134-11.499 25.633-25.634 25.633h-15.026l20.33-20.33c2.929-2.929 2.929-7.678 0-10.606-2.93-2.929-7.678-2.929-10.607 0l-20.329 20.329v-15.026c0-14.134 11.499-25.633 25.633-25.633h24.851c.432 0 .783.352.783.784v24.849z"/><path d="m24.066 130.967c1.919 0 3.839-.732 5.304-2.197l14.37-14.37h30.026c22.405 0 40.634-18.228 40.634-40.633v-24.85c0-8.703-7.081-15.783-15.784-15.783h-24.85c-22.405 0-40.633 18.228-40.633 40.633v30.026l-14.371 14.371c-2.929 2.929-2.929 7.678 0 10.606 1.466 1.464 3.385 2.197 5.304 2.197zm24.068-57.2c0-14.134 11.499-25.633 25.633-25.633h24.85c.433 0 .784.352.784.783v24.85c-.001 14.134-11.5 25.633-25.634 25.633h-15.027l20.33-20.33c2.929-2.929 2.929-7.678 0-10.606-2.93-2.929-7.678-2.929-10.607 0l-20.329 20.329z"/><path d="m173.167 147.533c4.143 0 7.5-3.358 7.5-7.5 0-23.269 18.931-42.2 42.199-42.2 23.27 0 42.2 18.931 42.2 42.2s-18.931 42.2-42.2 42.2h-198.8c-4.143 0-7.5 3.358-7.5 7.5s3.357 7.5 7.5 7.5h198.8c31.54 0 57.2-25.66 57.2-57.2s-25.66-57.2-57.2-57.2-57.199 25.66-57.199 57.2c0 4.142 3.357 7.5 7.5 7.5z"/><path d="m7.5 263.5h414.167c49.81 0 90.333-40.523 90.333-90.333s-40.523-90.333-90.333-90.333c-49.811 0-90.334 40.523-90.334 90.333 0 4.142 3.357 7.5 7.5 7.5s7.5-3.358 7.5-7.5c0-41.539 33.795-75.333 75.334-75.333s75.333 33.794 75.333 75.333-33.794 75.333-75.333 75.333h-414.167c-4.143 0-7.5 3.358-7.5 7.5s3.357 7.5 7.5 7.5z"/><path d="m338.833 314.767h-232.969c-4.143 0-7.5 3.358-7.5 7.5s3.357 7.5 7.5 7.5h232.969c23.27 0 42.2 18.931 42.2 42.2s-18.931 42.2-42.2 42.2c-23.268 0-42.199-18.931-42.199-42.2 0-4.142-3.357-7.5-7.5-7.5s-7.5 3.358-7.5 7.5c0 31.54 25.659 57.2 57.199 57.2s57.2-25.66 57.2-57.2c0-31.541-25.66-57.2-57.2-57.2z"/><path d="m82.302 322.267c0-4.142-3.358-7.5-7.5-7.5h-67.302c-4.143 0-7.5 3.358-7.5 7.5s3.357 7.5 7.5 7.5h67.302c4.142 0 7.5-3.358 7.5-7.5z"/><path d="m107.936 381.033h-50.736c-4.143 0-7.5 3.358-7.5 7.5s3.357 7.5 7.5 7.5h50.735c4.143 0 7.5-3.358 7.5-7.5.001-4.142-3.357-7.5-7.499-7.5z"/><path d="m239.434 381.033h-100.436c-4.143 0-7.5 3.358-7.5 7.5s3.357 7.5 7.5 7.5h100.436c4.143 0 7.5-3.358 7.5-7.5s-3.358-7.5-7.5-7.5z"/></g></svg>